{"glyphs":{"0":{"ha":306,"x_min":25,"x_max":281,"o":"m 142 -8 q 100 -1 121 -8 q 63 22 79 7 q 35 63 46 38 q 25 122 25 88 l 25 847 q 35 907 25 882 q 63 948 46 932 q 100 972 79 964 q 142 979 121 979 l 164 979 q 206 972 185 979 q 243 948 226 964 q 270 907 260 932 q 281 847 281 882 l 281 122 q 270 63 281 88 q 243 22 260 38 q 206 -1 226 7 q 164 -8 185 -8 l 142 -8 m 149 913 q 117 894 131 913 q 104 836 104 876 l 104 135 q 117 76 104 93 q 149 58 131 58 l 157 58 q 188 76 175 58 q 201 135 201 93 l 201 836 q 188 894 201 876 q 157 913 175 913 l 149 913 z "},"1":{"ha":218,"x_min":14,"x_max":176,"o":"m 97 0 l 97 851 q 57 838 82 844 q 14 832 32 832 l 14 893 q 74 916 44 893 q 111 971 104 939 l 176 971 l 176 0 l 97 0 z "},"2":{"ha":306,"x_min":25,"x_max":281,"o":"m 25 579 l 25 847 q 35 907 25 882 q 63 948 46 932 q 100 972 79 964 q 142 979 121 979 l 156 979 q 198 972 176 979 q 236 948 219 964 q 263 907 253 932 q 274 847 274 882 l 274 693 q 261 608 274 647 q 230 529 249 569 q 189 445 211 489 q 148 347 167 401 q 117 224 129 292 q 104 67 104 156 l 281 67 l 281 0 l 25 0 l 25 67 q 38 235 25 163 q 69 363 50 307 q 110 464 88 419 q 151 547 132 508 q 182 624 169 586 q 194 706 194 661 l 194 836 q 181 895 194 878 q 150 913 168 913 l 142 913 q 110 895 124 913 q 97 836 97 878 l 97 579 l 25 579 z "},"3":{"ha":306,"x_min":25,"x_max":281,"o":"m 150 528 q 188 549 174 528 q 201 611 201 569 l 201 836 q 188 895 201 878 q 157 913 175 913 l 149 913 q 117 895 131 913 q 104 836 104 878 l 104 578 l 25 578 l 25 847 q 35 907 25 882 q 63 948 46 932 q 100 972 79 964 q 142 979 121 979 l 164 979 q 206 972 185 979 q 243 948 226 964 q 270 907 260 932 q 281 847 281 882 l 281 619 q 255 533 281 561 q 194 499 229 506 q 255 467 229 492 q 281 385 281 442 l 281 122 q 270 63 281 88 q 243 22 260 38 q 206 -2 226 6 q 164 -10 185 -10 l 142 -10 q 100 -2 121 -10 q 63 22 79 6 q 35 63 46 38 q 25 122 25 88 l 25 392 l 104 392 l 104 133 q 117 74 104 92 q 149 57 131 57 l 157 57 q 188 74 175 57 q 201 133 201 92 l 201 386 q 188 449 201 428 q 150 469 174 469 l 121 469 l 121 528 l 150 528 z "},"4":{"ha":342,"x_min":14,"x_max":314,"o":"m 314 215 l 314 149 l 268 149 l 268 0 l 200 0 l 200 149 l 14 149 l 14 215 l 175 971 l 268 971 l 268 215 l 314 215 m 200 743 l 197 743 l 90 217 l 90 215 l 200 215 l 200 743 z "},"5":{"ha":306,"x_min":25,"x_max":281,"o":"m 142 -8 q 100 -1 121 -8 q 63 22 79 7 q 35 63 46 38 q 25 122 25 88 l 25 399 l 104 399 l 104 135 q 117 76 104 93 q 149 58 131 58 l 157 58 q 188 76 175 58 q 201 135 201 93 l 201 471 q 188 530 201 513 q 157 547 175 547 l 149 547 q 117 530 131 547 q 104 471 104 513 l 104 463 l 88 463 l 88 464 l 25 464 l 25 971 l 278 971 l 271 904 l 104 904 l 104 561 q 139 601 118 589 q 181 614 160 614 l 192 614 q 252 583 224 614 q 281 482 281 553 l 281 122 q 270 63 281 88 q 243 22 260 38 q 206 -1 226 7 q 164 -8 185 -8 l 142 -8 z "},"6":{"ha":306,"x_min":25,"x_max":281,"o":"m 142 -8 q 100 -1 121 -8 q 63 22 79 7 q 35 63 46 38 q 25 122 25 88 l 25 847 q 35 907 25 882 q 63 948 46 932 q 100 972 79 964 q 142 979 121 979 l 158 979 q 201 972 179 979 q 239 948 222 964 q 266 907 256 932 q 276 847 276 882 l 276 661 l 201 661 l 201 836 q 188 895 201 878 q 157 913 175 913 l 149 913 q 117 895 131 913 q 104 836 104 878 l 104 561 q 139 601 118 589 q 181 614 160 614 l 192 614 q 252 583 224 614 q 281 482 281 553 l 281 122 q 270 63 281 88 q 243 22 260 38 q 206 -1 226 7 q 164 -8 185 -8 l 142 -8 m 104 135 q 117 76 104 93 q 149 58 131 58 l 157 58 q 188 76 175 58 q 201 135 201 93 l 201 471 q 188 530 201 513 q 157 547 175 547 l 149 547 q 119 533 132 547 q 104 482 107 518 l 104 135 z "},"7":{"ha":264,"x_min":10,"x_max":236,"o":"m 14 0 l 156 911 l 10 911 l 10 971 l 236 971 l 236 911 l 94 0 l 14 0 z "},"8":{"ha":306,"x_min":25,"x_max":281,"o":"m 142 -8 q 100 -1 121 -8 q 63 22 79 7 q 35 63 46 38 q 25 122 25 88 l 25 381 q 42 456 25 426 q 86 499 60 485 q 42 541 60 513 q 25 617 25 569 l 25 847 q 35 907 25 882 q 63 948 46 932 q 100 972 79 964 q 142 979 121 979 l 164 979 q 206 972 185 979 q 243 948 226 964 q 270 907 260 932 q 281 847 281 882 l 281 617 q 263 541 281 569 q 219 499 246 513 q 263 456 246 485 q 281 381 281 426 l 281 122 q 270 63 281 88 q 243 22 260 38 q 206 -1 226 7 q 164 -8 185 -8 l 142 -8 m 149 474 q 117 456 131 474 q 104 397 104 438 l 104 135 q 117 76 104 93 q 149 58 131 58 l 157 58 q 188 76 175 58 q 201 135 201 93 l 201 397 q 188 456 201 438 q 157 474 175 474 l 149 474 m 149 913 q 117 894 131 913 q 104 836 104 876 l 104 600 q 117 542 104 560 q 149 524 131 524 l 157 524 q 188 542 175 524 q 201 600 201 560 l 201 836 q 188 894 201 876 q 157 913 175 913 l 149 913 z "},"9":{"ha":306,"x_min":25,"x_max":281,"o":"m 164 979 q 206 972 185 979 q 243 948 226 964 q 270 907 260 932 q 281 847 281 882 l 281 122 q 270 63 281 88 q 243 22 260 38 q 206 -1 226 7 q 164 -8 185 -8 l 147 -8 q 105 -1 126 -8 q 67 22 83 7 q 40 63 50 38 q 29 122 29 88 l 29 392 l 104 392 l 104 133 q 117 76 104 93 q 149 58 131 58 l 157 58 q 188 75 175 58 q 201 135 201 92 l 201 490 q 167 451 188 463 q 125 439 146 439 l 114 439 q 53 469 82 439 q 25 569 25 500 l 25 847 q 35 907 25 882 q 63 948 46 932 q 100 972 79 964 q 142 979 121 979 l 164 979 m 201 836 q 188 894 201 876 q 157 913 175 913 l 149 913 q 117 894 131 913 q 104 836 104 876 l 104 582 q 117 522 104 539 q 149 506 131 506 l 157 506 q 185 519 172 506 q 201 568 199 533 l 201 836 z "},"\u0000":{"ha":0,"x_min":0,"x_max":0,"o":""},"\r":{"ha":167,"x_min":0,"x_max":0,"o":""}," ":{"ha":167,"x_min":0,"x_max":0,"o":""},"K":{"ha":303,"x_min":28,"x_max":299,"o":"m 163 504 l 296 0 l 224 0 l 108 399 l 107 399 l 107 0 l 28 0 l 28 971 l 107 971 l 107 578 l 108 578 l 226 971 l 299 971 l 163 504 z "},"L":{"ha":229,"x_min":28,"x_max":225,"o":"m 107 971 l 107 60 l 225 60 l 225 0 l 28 0 l 28 971 l 107 971 z "},"M":{"ha":414,"x_min":25,"x_max":386,"o":"m 386 971 l 386 0 l 321 0 l 321 731 l 319 731 l 235 0 l 175 0 l 93 731 l 92 731 l 92 0 l 25 0 l 25 971 l 128 971 l 204 297 l 206 297 l 283 971 l 386 971 z "},"N":{"ha":343,"x_min":25,"x_max":318,"o":"m 229 0 l 93 731 l 92 731 l 92 0 l 25 0 l 25 971 l 115 971 l 246 249 l 246 971 l 318 971 l 318 0 l 229 0 z "},"O":{"ha":306,"x_min":25,"x_max":281,"o":"m 142 -8 q 100 -1 121 -8 q 63 22 79 7 q 35 63 46 38 q 25 122 25 88 l 25 847 q 35 907 25 882 q 63 948 46 932 q 100 972 79 964 q 142 979 121 979 l 164 979 q 206 972 185 979 q 243 948 226 964 q 270 907 260 932 q 281 847 281 882 l 281 122 q 270 63 281 88 q 243 22 260 38 q 206 -1 226 7 q 164 -8 185 -8 l 142 -8 m 149 913 q 117 894 131 913 q 104 836 104 876 l 104 135 q 117 76 104 93 q 149 58 131 58 l 157 58 q 188 76 175 58 q 201 135 201 93 l 201 836 q 188 894 201 876 q 157 913 175 913 l 149 913 z "},"P":{"ha":308,"x_min":28,"x_max":283,"o":"m 167 971 q 249 938 214 971 q 283 840 283 904 l 283 521 q 252 435 283 461 q 174 410 221 410 l 107 410 l 107 0 l 28 0 l 28 971 l 167 971 m 204 828 q 191 886 204 868 q 160 904 178 904 l 107 904 l 107 475 l 167 475 q 204 544 204 475 l 204 828 z "},"Q":{"ha":307,"x_min":25,"x_max":281,"o":"m 142 -8 q 100 -1 121 -8 q 63 22 79 7 q 35 63 46 38 q 25 122 25 88 l 25 847 q 35 907 25 882 q 63 948 46 932 q 100 972 79 964 q 142 979 121 979 l 164 979 q 206 972 185 979 q 243 948 226 964 q 270 907 260 932 q 281 847 281 882 l 281 122 q 269 59 281 85 q 239 18 257 33 l 276 -19 l 236 -60 l 183 -6 q 174 -8 178 -7 q 164 -8 169 -8 l 142 -8 m 149 913 q 117 894 131 913 q 104 836 104 876 l 104 135 q 117 76 104 93 q 149 58 131 58 l 157 58 q 188 76 175 58 q 201 135 201 93 l 201 836 q 188 894 201 876 q 157 913 175 913 l 149 913 z "},"R":{"ha":317,"x_min":28,"x_max":297,"o":"m 283 578 q 269 512 283 533 q 235 483 256 490 q 269 456 256 478 q 283 390 283 435 l 283 157 q 289 42 283 75 q 297 0 294 8 l 218 0 q 207 53 210 17 q 204 157 204 89 l 204 383 q 167 454 204 454 l 107 454 l 107 0 l 28 0 l 28 971 l 167 971 q 249 938 214 971 q 283 840 283 906 l 283 578 m 167 514 q 204 583 204 514 l 204 828 q 191 886 204 868 q 160 904 178 904 l 107 904 l 107 514 l 167 514 z "},"S":{"ha":306,"x_min":25,"x_max":281,"o":"m 201 579 l 201 836 q 188 895 201 878 q 157 913 175 913 l 149 913 q 117 895 131 913 q 104 836 104 878 l 104 706 q 132 589 104 639 q 192 492 160 539 q 253 395 225 446 q 281 278 281 344 l 281 122 q 271 63 281 88 q 244 22 261 38 q 207 -1 228 7 q 164 -8 186 -8 l 144 -8 q 102 -1 124 -8 q 63 22 81 7 q 35 63 46 38 q 25 122 25 88 l 25 392 l 97 392 l 97 135 q 112 76 97 93 q 146 58 126 58 l 154 58 q 188 76 174 58 q 201 135 201 93 l 201 265 q 174 381 201 331 q 113 477 146 431 q 53 574 81 524 q 25 693 25 625 l 25 847 q 35 907 25 882 q 63 948 46 932 q 101 972 79 964 q 143 979 122 979 l 157 979 q 199 972 178 979 q 236 948 219 964 q 263 907 253 932 q 274 847 274 882 l 274 579 l 201 579 z "},"T":{"ha":269,"x_min":4,"x_max":265,"o":"m 265 904 l 175 904 l 175 0 l 96 0 l 96 904 l 4 904 l 4 971 l 265 971 l 265 904 z "},"U":{"ha":308,"x_min":28,"x_max":283,"o":"m 144 -8 q 103 -1 124 -8 q 65 22 82 7 q 38 63 49 38 q 28 122 28 88 l 28 971 l 107 971 l 107 135 q 120 76 107 93 q 151 58 133 58 l 160 58 q 191 76 178 58 q 204 135 204 93 l 204 971 l 283 971 l 283 122 q 273 63 283 88 q 246 22 263 38 q 208 -1 229 7 q 167 -8 188 -8 l 144 -8 z "},"V":{"ha":296,"x_min":4,"x_max":292,"o":"m 224 971 l 292 971 l 200 0 l 99 0 l 4 971 l 81 971 l 150 222 l 153 222 l 224 971 z "},"W":{"ha":458,"x_min":4,"x_max":454,"o":"m 76 0 l 4 971 l 79 971 l 129 269 l 132 269 l 196 971 l 261 971 l 333 269 l 335 269 l 385 971 l 454 971 l 382 0 l 303 0 l 229 663 l 164 0 l 76 0 z "},"X":{"ha":296,"x_min":4,"x_max":292,"o":"m 189 499 l 292 0 l 210 0 l 143 338 l 81 0 l 4 0 l 106 522 l 4 971 l 82 971 l 149 685 l 210 971 l 289 971 l 189 499 z "},"Y":{"ha":296,"x_min":4,"x_max":292,"o":"m 188 369 l 188 0 l 108 0 l 108 369 l 4 971 l 83 971 l 146 550 l 149 550 l 213 971 l 292 971 l 188 369 z "},"Z":{"ha":292,"x_min":14,"x_max":278,"o":"m 278 0 l 14 0 l 14 57 l 185 911 l 39 911 l 39 971 l 265 971 l 265 914 l 93 60 l 278 60 l 278 0 z "},"a":{"ha":276,"x_min":24,"x_max":256,"o":"m 101 -4 q 40 28 57 -4 q 24 118 24 60 l 24 261 q 42 352 24 319 q 106 385 61 385 l 110 385 q 146 376 128 385 q 182 354 164 368 l 182 567 q 170 614 182 599 q 143 629 158 629 l 135 629 q 108 614 119 629 q 97 567 97 599 l 97 404 l 24 404 l 24 568 q 54 660 24 628 q 129 692 85 692 l 150 692 q 225 659 194 692 q 256 568 256 626 l 256 0 l 182 0 l 182 28 q 143 4 163 13 q 106 -4 124 -4 l 101 -4 m 135 329 q 108 314 119 329 q 97 267 97 299 l 97 113 q 108 65 97 81 q 135 50 119 50 l 139 50 q 167 63 154 50 q 182 106 179 76 l 182 293 q 167 321 179 313 q 143 329 154 329 l 135 329 z "},"b":{"ha":278,"x_min":25,"x_max":257,"o":"m 168 -4 q 129 8 149 -4 q 93 42 110 21 l 85 0 l 25 0 l 25 971 l 99 971 l 99 650 q 133 681 114 669 q 171 692 151 692 l 175 692 q 238 659 219 692 q 257 568 257 626 l 257 118 q 237 28 257 60 q 172 -4 217 -4 l 168 -4 m 142 629 q 113 613 126 629 q 99 565 100 596 l 99 126 q 113 76 99 94 q 142 57 126 57 l 146 57 q 172 72 161 57 q 183 119 183 88 l 183 567 q 172 614 183 599 q 144 629 160 629 l 142 629 z "},"c":{"ha":276,"x_min":24,"x_max":256,"o":"m 182 404 l 182 567 q 171 614 182 599 q 144 629 160 629 l 136 629 q 109 614 121 629 q 97 567 97 599 l 97 119 q 108 72 97 88 q 133 57 119 57 l 144 57 q 171 72 160 57 q 182 119 182 88 l 182 286 l 256 286 l 256 119 q 225 28 256 60 q 150 -4 194 -4 l 125 -4 q 54 28 85 -4 q 24 119 24 60 l 24 568 q 54 659 24 626 q 129 692 85 692 l 150 692 q 225 660 194 692 q 256 568 256 628 l 256 404 l 182 404 z "},"d":{"ha":281,"x_min":24,"x_max":256,"o":"m 108 -4 q 44 28 64 -4 q 24 118 24 60 l 24 568 q 42 659 24 626 q 106 692 61 692 l 110 692 q 147 681 128 692 q 182 650 165 669 l 182 971 l 256 971 l 256 0 l 196 0 l 188 42 q 151 8 171 21 q 113 -4 132 -4 l 108 -4 m 136 629 q 109 614 121 629 q 97 567 97 599 l 97 119 q 108 72 97 88 q 135 57 119 57 l 139 57 q 168 76 154 57 q 182 126 182 94 l 182 565 q 167 613 179 596 q 139 629 154 629 l 136 629 z "},"e":{"ha":276,"x_min":24,"x_max":256,"o":"m 133 57 l 144 57 q 171 72 160 57 q 182 119 182 88 l 182 286 l 256 286 l 256 119 q 225 28 256 60 q 150 -4 194 -4 l 125 -4 q 54 28 85 -4 q 24 119 24 60 l 24 568 q 54 659 24 626 q 129 692 85 692 l 150 692 q 225 660 194 692 q 256 568 256 628 l 256 328 l 97 328 l 97 119 q 108 72 97 88 q 133 57 119 57 m 182 379 l 182 567 q 171 614 182 599 q 144 629 160 629 l 136 629 q 109 614 121 629 q 97 567 97 599 l 97 379 l 182 379 z "},"f":{"ha":221,"x_min":24,"x_max":218,"o":"m 58 0 l 58 625 l 24 625 l 24 688 l 58 688 l 58 857 q 68 912 58 886 q 98 954 78 938 q 148 977 118 971 q 218 974 178 983 l 218 915 q 160 906 189 921 q 132 851 132 892 l 132 688 l 218 688 l 218 625 l 132 625 l 132 0 l 58 0 z "},"g":{"ha":279,"x_min":24,"x_max":256,"o":"m 256 688 l 256 -106 q 225 -197 256 -165 q 154 -229 194 -229 l 129 -229 q 54 -197 85 -229 q 24 -106 24 -165 l 24 -40 l 97 -40 l 97 -106 q 108 -153 97 -137 q 135 -168 119 -168 l 146 -168 q 171 -153 160 -168 q 182 -106 182 -137 l 182 35 q 146 6 164 17 q 110 -4 128 -4 l 106 -4 q 42 28 61 -4 q 24 118 24 60 l 24 568 q 44 659 24 626 q 108 692 64 692 l 113 692 q 147 681 129 692 q 182 654 165 671 l 196 688 l 256 688 m 139 57 q 168 76 154 57 q 182 126 182 94 l 182 565 q 167 613 179 596 q 139 629 154 629 l 135 629 q 108 614 119 629 q 97 567 97 599 l 97 119 q 108 72 97 88 q 135 57 119 57 l 139 57 z "},"h":{"ha":283,"x_min":28,"x_max":261,"o":"m 146 629 q 116 610 131 629 q 101 558 101 590 l 101 0 l 28 0 l 28 971 l 101 971 l 101 647 q 136 679 117 667 q 175 692 156 692 l 179 692 q 242 659 224 692 q 261 568 261 626 l 261 0 l 188 0 l 188 567 q 176 614 188 599 q 150 629 165 629 l 146 629 z "},"i":{"ha":125,"x_min":28,"x_max":101,"o":"m 101 688 l 101 0 l 28 0 l 28 688 l 101 688 m 101 857 l 101 744 l 28 744 l 28 857 l 101 857 z "},"j":{"ha":182,"x_min":25,"x_max":157,"o":"m 157 860 l 157 743 l 83 743 l 83 860 l 157 860 m 157 688 l 157 -107 q 126 -197 157 -165 q 25 -229 94 -229 l 25 -168 q 67 -153 51 -168 q 83 -107 83 -139 l 83 688 l 157 688 z "},"k":{"ha":272,"x_min":28,"x_max":269,"o":"m 146 358 l 269 0 l 194 0 l 100 274 l 100 0 l 28 0 l 28 971 l 100 971 l 100 433 l 199 688 l 269 688 l 146 358 z "},"l":{"ha":124,"x_min":28,"x_max":101,"o":"m 28 971 l 101 971 l 101 0 l 28 0 l 28 971 z "},"m":{"ha":442,"x_min":25,"x_max":419,"o":"m 144 629 q 115 611 129 629 q 99 564 100 593 l 99 0 l 25 0 l 25 688 l 99 688 l 99 649 q 134 680 115 668 q 172 692 153 692 l 176 692 q 250 638 231 692 q 290 676 268 661 q 333 692 311 692 l 338 692 q 401 659 382 692 q 419 568 419 626 l 419 0 l 346 0 l 346 567 q 335 614 346 599 q 308 629 324 629 l 304 629 q 274 610 289 629 q 260 560 260 592 l 260 0 l 186 0 l 186 567 q 174 614 186 599 q 147 629 163 629 l 144 629 z "},"n":{"ha":282,"x_min":25,"x_max":260,"o":"m 144 629 q 115 611 129 629 q 99 564 100 593 l 99 0 l 25 0 l 25 688 l 99 688 l 99 649 q 134 680 115 668 q 172 692 153 692 l 176 692 q 240 659 221 692 q 260 568 260 626 l 260 0 l 186 0 l 186 567 q 174 614 186 599 q 147 629 163 629 l 144 629 z "},"o":{"ha":276,"x_min":24,"x_max":256,"o":"m 129 -4 q 54 28 85 -4 q 24 118 24 60 l 24 568 q 54 659 24 626 q 129 692 85 692 l 150 692 q 225 659 194 692 q 256 568 256 626 l 256 118 q 225 28 256 60 q 150 -4 194 -4 l 129 -4 m 136 629 q 109 614 121 629 q 97 567 97 599 l 97 119 q 109 72 97 88 q 136 57 121 57 l 144 57 q 171 72 160 57 q 182 119 182 88 l 182 567 q 171 614 182 599 q 144 629 160 629 l 136 629 z "},"p":{"ha":281,"x_min":28,"x_max":260,"o":"m 175 692 q 240 659 219 692 q 260 568 260 626 l 260 118 q 241 28 260 60 q 178 -4 222 -4 l 174 -4 q 135 7 154 -4 q 101 38 117 18 l 101 -229 l 28 -229 l 28 688 l 88 688 l 96 644 q 132 678 113 665 q 171 692 151 692 l 175 692 m 149 57 q 175 72 164 57 q 186 119 186 88 l 186 567 q 175 614 186 599 q 149 629 164 629 l 144 629 q 115 610 129 629 q 101 560 101 592 l 101 119 q 116 74 103 92 q 144 57 129 57 l 149 57 z "},"q":{"ha":281,"x_min":24,"x_max":256,"o":"m 113 692 q 151 678 132 692 q 188 644 171 665 l 196 688 l 256 688 l 256 -229 l 182 -229 l 182 38 q 147 7 165 18 q 110 -4 128 -4 l 106 -4 q 42 28 61 -4 q 24 118 24 60 l 24 568 q 44 659 24 626 q 108 692 64 692 l 113 692 m 139 57 q 167 74 154 57 q 182 119 179 92 l 182 560 q 168 610 182 592 q 139 629 154 629 l 135 629 q 108 614 119 629 q 97 567 97 599 l 97 119 q 108 72 97 88 q 135 57 119 57 l 139 57 z "},"r":{"ha":281,"x_min":25,"x_max":260,"o":"m 144 629 q 115 611 129 629 q 99 564 100 593 l 99 0 l 25 0 l 25 688 l 99 688 l 99 649 q 134 680 115 668 q 172 692 153 692 l 176 692 q 244 651 225 692 q 260 568 260 618 l 260 404 l 186 404 l 186 567 q 174 614 186 599 q 147 629 163 629 l 144 629 z "},"s":{"ha":276,"x_min":24,"x_max":256,"o":"m 182 417 l 182 567 q 170 613 182 597 q 143 629 158 629 l 136 629 q 109 613 121 629 q 97 567 97 597 l 97 490 q 109 436 97 460 q 138 392 121 413 q 176 351 156 371 q 215 309 197 331 q 244 261 232 288 q 256 201 256 235 l 256 118 q 224 28 256 60 q 151 -4 193 -4 l 131 -4 q 55 28 86 -4 q 24 118 24 60 l 24 271 l 90 271 l 90 119 q 102 73 90 89 q 132 57 114 57 l 142 57 q 170 73 158 57 q 182 119 182 89 l 182 197 q 157 271 182 240 q 103 332 132 301 q 49 398 74 363 q 24 485 24 433 l 24 568 q 54 659 24 626 q 129 692 85 692 l 142 692 q 217 659 186 692 q 249 568 249 626 l 249 417 l 182 417 z "},"t":{"ha":192,"x_min":11,"x_max":178,"o":"m 119 913 l 119 688 l 178 688 l 178 625 l 119 625 l 119 118 q 135 68 119 85 q 178 57 150 51 l 178 -3 q 76 24 107 -11 q 46 118 46 60 l 46 625 l 11 625 l 11 688 l 46 688 l 46 906 l 119 913 z "},"u":{"ha":281,"x_min":22,"x_max":257,"o":"m 138 57 q 168 77 153 57 q 183 129 183 97 l 183 688 l 257 688 l 257 0 l 183 0 l 183 39 q 147 8 165 19 q 108 -4 128 -4 l 104 -4 q 41 28 60 -4 q 22 118 22 60 l 22 688 l 96 688 l 96 119 q 107 72 96 88 q 133 57 118 57 l 138 57 z "},"v":{"ha":247,"x_min":3,"x_max":244,"o":"m 183 688 l 244 688 l 169 0 l 79 0 l 3 688 l 71 688 l 125 157 l 128 157 l 183 688 z "},"w":{"ha":428,"x_min":3,"x_max":425,"o":"m 72 0 l 3 688 l 71 688 l 118 190 l 121 190 l 185 688 l 250 688 l 314 190 l 315 190 l 363 688 l 425 688 l 356 0 l 274 0 l 211 528 l 210 528 l 153 0 l 72 0 z "},"x":{"ha":271,"x_min":3,"x_max":268,"o":"m 168 354 l 268 0 l 196 0 l 132 242 l 69 0 l 3 0 l 97 347 l 4 688 l 76 688 l 135 463 l 194 688 l 261 688 l 168 354 z "},"y":{"ha":249,"x_min":3,"x_max":246,"o":"m 185 688 l 246 688 l 147 -229 l 75 -229 l 103 0 l 3 688 l 69 688 l 128 207 l 131 207 l 185 688 z "},"z":{"ha":236,"x_min":3,"x_max":232,"o":"m 232 0 l 3 0 l 3 60 l 157 628 l 18 628 l 18 688 l 229 688 l 229 628 l 75 60 l 232 60 l 232 0 z "},"$":{"ha":306,"x_min":25,"x_max":281,"o":"m 125 -7 q 56 29 86 -1 q 25 122 25 60 l 25 392 l 97 392 l 97 135 q 112 76 97 93 q 146 58 126 58 l 154 58 q 188 76 174 58 q 201 135 201 93 l 201 265 q 174 381 201 331 q 113 477 146 431 q 53 574 81 524 q 25 693 25 625 l 25 847 q 56 940 25 910 q 125 978 86 971 l 125 1049 l 178 1049 l 178 976 q 244 940 215 969 q 274 847 274 910 l 274 579 l 201 579 l 201 836 q 188 895 201 878 q 157 913 175 913 l 149 913 q 117 895 131 913 q 104 836 104 878 l 104 706 q 132 589 104 639 q 192 492 160 539 q 253 395 225 446 q 281 278 281 344 l 281 122 q 249 27 281 57 q 178 -7 218 -3 l 178 -79 l 125 -79 l 125 -7 z "},"D":{"ha":308,"x_min":28,"x_max":283,"o":"m 28 0 l 28 971 l 167 971 q 208 964 188 971 q 246 942 229 957 q 273 902 263 926 q 283 843 283 878 l 283 126 q 273 67 283 92 q 246 28 263 43 q 208 7 229 14 q 167 0 188 0 l 28 0 m 107 904 l 107 67 l 160 67 q 191 82 178 67 q 204 139 204 97 l 204 832 q 191 888 204 872 q 160 904 178 904 l 107 904 z "},"ﬁ":{"ha":293,"x_min":25,"x_max":269,"o":"m 60 0 l 60 625 l 25 625 l 25 688 l 60 688 l 60 857 q 69 912 60 886 q 99 954 79 938 q 149 977 119 971 q 219 974 179 983 l 219 915 q 162 906 190 921 q 133 851 133 892 l 133 688 l 269 688 l 269 0 l 196 0 l 196 625 l 133 625 l 133 0 l 60 0 z "},"…":{"ha":450,"x_min":42,"x_max":408,"o":"m 122 0 l 42 0 l 42 119 l 122 119 l 122 0 m 265 0 l 185 0 l 185 119 l 265 119 l 265 0 m 408 0 l 328 0 l 328 119 l 408 119 l 408 0 z "},"!":{"ha":164,"x_min":42,"x_max":122,"o":"m 110 165 l 51 165 l 42 599 l 42 971 l 121 971 l 121 599 l 110 165 m 122 0 l 42 0 l 42 119 l 122 119 l 122 0 z "},".":{"ha":164,"x_min":42,"x_max":122,"o":"m 122 0 l 42 0 l 42 119 l 122 119 l 122 0 z "},",":{"ha":139,"x_min":29,"x_max":110,"o":"m 110 0 l 78 -82 l 44 -82 l 65 0 l 29 0 l 29 119 l 110 119 l 110 0 z "},":":{"ha":164,"x_min":42,"x_max":122,"o":"m 122 456 l 42 456 l 42 576 l 122 576 l 122 456 m 122 0 l 42 0 l 42 119 l 122 119 l 122 0 z "},";":{"ha":175,"x_min":51,"x_max":133,"o":"m 132 456 l 51 456 l 51 576 l 132 576 l 132 456 m 133 0 l 103 -82 l 68 -82 l 89 0 l 53 0 l 53 119 l 133 119 l 133 0 z "},"”":{"ha":317,"x_min":51,"x_max":275,"o":"m 132 850 l 101 768 l 67 768 l 88 850 l 51 850 l 51 971 l 132 971 l 132 850 m 275 850 l 244 768 l 210 768 l 231 850 l 194 850 l 194 971 l 275 971 l 275 850 z "},"“":{"ha":317,"x_min":42,"x_max":265,"o":"m 42 869 l 72 951 l 107 951 l 86 869 l 122 869 l 122 749 l 42 749 l 42 869 m 185 869 l 215 951 l 250 951 l 229 869 l 265 869 l 265 749 l 185 749 l 185 869 z "},"’":{"ha":174,"x_min":51,"x_max":132,"o":"m 132 826 l 101 744 l 67 744 l 88 826 l 51 826 l 51 946 l 132 946 l 132 826 z "},"‘":{"ha":174,"x_min":42,"x_max":122,"o":"m 42 869 l 72 951 l 107 951 l 86 869 l 122 869 l 122 749 l 42 749 l 42 869 z "},"?":{"ha":299,"x_min":25,"x_max":274,"o":"m 25 579 l 25 847 q 35 907 25 882 q 63 948 46 932 q 100 972 79 964 q 142 979 121 979 l 156 979 q 198 972 176 979 q 236 948 219 964 q 263 907 253 932 q 274 847 274 882 l 274 693 q 263 608 274 646 q 236 536 251 571 q 204 466 221 501 q 176 388 188 431 q 160 290 164 344 q 167 165 156 236 l 88 165 q 81 301 76 243 q 97 404 85 360 q 125 484 108 449 q 157 553 142 519 q 183 624 172 588 q 194 706 194 660 l 194 836 q 181 895 194 878 q 150 913 168 913 l 142 913 q 110 895 124 913 q 97 836 97 878 l 97 579 l 25 579 m 168 0 l 88 0 l 88 119 l 168 119 l 168 0 z "},"|":{"ha":143,"x_min":35,"x_max":108,"o":"m 35 1013 l 108 1013 l 108 -42 l 35 -42 l 35 1013 z "},"/":{"ha":292,"x_min":4,"x_max":288,"o":"m 221 971 l 288 971 l 71 0 l 4 0 l 221 971 z "},"\\":{"ha":292,"x_min":4,"x_max":288,"o":"m 288 0 l 221 0 l 4 971 l 71 971 l 288 0 z "},"⁄":{"ha":292,"x_min":4,"x_max":288,"o":"m 221 971 l 288 971 l 71 0 l 4 0 l 221 971 z "},"<":{"ha":335,"x_min":28,"x_max":307,"o":"m 307 8 l 304 7 l 28 322 l 28 361 l 303 679 l 306 678 l 306 594 l 304 592 l 96 346 l 96 340 l 304 97 l 306 94 l 307 8 z "},">":{"ha":335,"x_min":28,"x_max":307,"o":"m 28 93 l 29 96 l 238 340 l 238 344 l 29 592 l 28 594 l 28 676 l 31 679 l 307 361 l 307 321 l 31 7 l 28 8 l 28 93 z "},"%":{"ha":592,"x_min":28,"x_max":564,"o":"m 438 971 l 93 0 l 150 0 l 496 971 l 438 971 m 119 422 q 55 450 82 422 q 28 529 28 478 l 28 871 q 55 951 28 924 q 119 979 82 979 l 139 979 q 204 951 176 979 q 232 871 232 924 l 232 529 q 204 450 232 478 q 139 422 176 422 l 119 422 m 126 929 q 99 915 111 929 q 88 868 88 900 l 88 532 q 99 486 88 500 q 126 472 111 472 l 135 472 q 161 486 150 472 q 172 532 172 500 l 172 868 q 161 915 172 900 q 135 929 150 929 l 126 929 m 453 -8 q 388 19 415 -8 q 360 100 360 47 l 360 446 q 388 525 361 497 q 453 553 415 553 l 471 553 q 537 525 510 553 q 564 446 564 497 l 564 100 q 537 19 564 47 q 471 -8 510 -8 l 453 -8 m 458 503 q 431 489 443 503 q 419 443 419 475 l 419 101 q 431 56 419 69 q 458 42 443 42 l 467 42 q 493 56 482 42 q 504 101 504 69 l 504 443 q 493 489 504 475 q 467 503 482 503 l 458 503 z "},"‰":{"ha":825,"x_min":25,"x_max":800,"o":"m 435 971 l 90 0 l 147 0 l 493 971 l 435 971 m 117 422 q 52 450 79 422 q 25 529 25 478 l 25 871 q 52 951 25 924 q 117 979 79 979 l 136 979 q 201 951 174 979 q 229 871 229 924 l 229 529 q 201 450 229 478 q 136 422 174 422 l 117 422 m 124 929 q 97 915 108 929 q 85 868 85 900 l 85 532 q 97 486 85 500 q 124 472 108 472 l 132 472 q 158 486 147 472 q 169 532 169 500 l 169 868 q 158 915 169 900 q 132 929 147 929 l 124 929 m 450 -8 q 385 19 413 -8 q 357 100 357 47 l 357 446 q 385 525 358 497 q 450 553 413 553 l 468 553 q 534 525 507 553 q 561 446 561 497 l 561 100 q 534 19 561 47 q 468 -8 507 -8 l 450 -8 m 456 503 q 428 489 440 503 q 417 443 417 475 l 417 101 q 428 56 417 69 q 456 42 440 42 l 464 42 q 490 56 479 42 q 501 101 501 69 l 501 443 q 490 489 501 475 q 464 503 479 503 l 456 503 m 688 -8 q 623 19 650 -8 q 596 100 596 47 l 596 446 q 623 525 596 497 q 688 553 650 553 l 707 553 q 772 525 744 553 q 800 446 800 497 l 800 100 q 772 19 800 47 q 707 -8 744 -8 l 688 -8 m 694 503 q 667 489 679 503 q 656 443 656 475 l 656 101 q 667 56 656 69 q 694 42 679 42 l 703 42 q 729 56 718 42 q 740 101 740 69 l 740 443 q 729 489 740 475 q 703 503 718 503 l 694 503 z "},"«":{"ha":310,"x_min":28,"x_max":282,"o":"m 93 61 l 28 339 l 92 618 l 161 618 l 97 338 l 164 61 l 93 61 m 211 61 l 146 339 l 210 618 l 279 618 l 215 338 l 282 61 l 211 61 z "},"»":{"ha":310,"x_min":28,"x_max":282,"o":"m 28 61 l 94 338 l 31 618 l 100 618 l 164 339 l 99 61 l 28 61 m 146 61 l 213 338 l 149 618 l 218 618 l 282 339 l 217 61 l 146 61 z "},"^":{"ha":357,"x_min":28,"x_max":329,"o":"m 258 575 l 256 576 l 181 849 l 176 849 l 103 576 l 100 575 l 29 575 l 28 578 l 135 971 l 222 971 l 329 578 l 328 575 l 258 575 z "},"*":{"ha":275,"x_min":25,"x_max":250,"o":"m 92 747 l 58 771 l 107 844 l 25 869 l 38 908 l 118 879 l 117 971 l 158 971 l 156 879 l 238 908 l 250 868 l 168 844 l 218 771 l 183 747 l 136 825 l 92 747 z "},"#":{"ha":447,"x_min":28,"x_max":419,"o":"m 385 300 l 322 300 l 297 0 l 225 0 l 251 300 l 169 300 l 143 0 l 72 0 l 97 300 l 28 300 l 33 365 l 103 365 l 124 603 l 56 603 l 61 668 l 129 668 l 156 971 l 228 971 l 201 668 l 283 668 l 310 971 l 381 971 l 354 668 l 419 668 l 413 603 l 349 603 l 328 365 l 392 365 l 385 300 m 175 365 l 257 365 l 278 603 l 196 603 l 175 365 z "},"[":{"ha":247,"x_min":25,"x_max":185,"o":"m 25 -78 l 25 1049 l 185 1049 l 185 982 l 104 982 l 104 -11 l 185 -11 l 185 -78 l 25 -78 z "},"]":{"ha":247,"x_min":63,"x_max":222,"o":"m 63 -78 l 63 -11 l 143 -11 l 143 982 l 63 982 l 63 1049 l 222 1049 l 222 -78 l 63 -78 z "},"(":{"ha":289,"x_min":25,"x_max":226,"o":"m 156 -50 q 106 -42 129 -50 q 64 -16 82 -35 q 35 33 46 3 q 25 108 25 63 l 25 861 q 35 938 25 907 q 64 987 46 968 q 106 1013 82 1006 q 156 1021 129 1021 l 226 1021 l 226 954 l 183 954 q 122 922 139 954 q 104 822 104 890 l 104 149 q 122 49 104 81 q 183 17 139 17 l 226 17 l 226 -50 l 156 -50 z "},")":{"ha":289,"x_min":63,"x_max":264,"o":"m 63 -50 l 63 17 l 106 17 q 167 49 150 17 q 185 149 185 81 l 185 822 q 167 922 185 890 q 106 954 150 954 l 63 954 l 63 1021 l 132 1021 q 183 1013 158 1021 q 225 987 207 1006 q 253 938 243 968 q 264 861 264 907 l 264 108 q 253 33 264 63 q 225 -16 243 3 q 183 -42 207 -35 q 132 -50 158 -50 l 63 -50 z "},"{":{"ha":303,"x_min":14,"x_max":247,"o":"m 14 528 l 29 528 q 78 552 63 528 q 94 618 94 576 l 94 919 q 129 1028 94 994 q 211 1063 164 1063 l 247 1063 l 247 996 l 239 996 q 188 969 201 996 q 174 906 174 942 l 174 619 q 164 563 174 586 q 139 526 154 540 q 104 504 124 511 q 64 496 85 497 q 104 488 85 494 q 139 465 124 481 q 164 427 154 450 q 174 371 174 404 l 174 86 q 188 22 174 49 q 239 -4 201 -4 l 247 -4 l 247 -71 l 211 -71 q 129 -37 164 -71 q 94 72 94 -3 l 94 374 q 78 439 94 414 q 29 464 63 464 l 14 464 l 14 496 l 14 528 z "},"}":{"ha":303,"x_min":56,"x_max":289,"o":"m 289 528 l 289 464 l 274 464 q 224 439 240 464 q 208 374 208 414 l 208 72 q 173 -37 208 -3 q 90 -71 138 -71 l 56 -71 l 56 -4 l 64 -4 q 115 22 101 -4 q 129 86 129 49 l 129 371 q 138 427 129 404 q 163 465 147 450 q 197 488 178 481 q 238 496 217 494 q 197 504 217 497 q 163 526 178 511 q 138 563 147 540 q 129 619 129 586 l 129 906 q 115 969 129 942 q 64 996 101 996 l 56 996 l 56 1063 l 90 1063 q 173 1028 138 1063 q 208 919 208 994 l 208 618 q 224 552 208 576 q 274 528 240 528 l 289 528 z "},"@":{"ha":519,"x_min":25,"x_max":494,"o":"m 239 -8 q 140 10 181 -8 q 74 57 100 28 q 37 122 49 86 q 25 192 25 157 l 25 625 q 37 696 25 660 q 74 761 49 732 q 140 808 100 790 q 239 826 181 826 l 281 826 q 379 808 339 826 q 445 761 419 790 q 483 696 471 732 q 494 625 494 660 l 494 201 q 470 150 494 168 q 414 129 446 132 q 351 138 382 126 q 310 176 321 150 q 273 142 293 154 q 233 129 253 129 l 229 129 q 166 161 185 129 q 147 251 147 193 l 147 563 q 167 653 147 621 q 232 686 188 686 l 236 686 q 272 675 254 686 q 306 646 290 664 l 306 650 l 319 685 l 372 685 l 372 233 q 380 205 372 214 q 397 196 388 196 q 415 205 407 196 q 422 233 422 214 l 422 621 q 417 667 422 642 q 397 715 413 693 q 354 751 382 736 q 281 767 326 767 l 239 767 q 165 751 193 767 q 122 715 138 736 q 102 667 107 693 q 97 621 97 642 l 97 197 q 102 151 97 176 q 122 103 107 125 q 165 67 138 82 q 239 51 193 51 l 281 51 q 356 67 329 51 q 393 99 382 83 l 447 58 q 388 13 426 35 q 281 -8 349 -8 l 239 -8 m 263 190 q 292 209 278 190 q 306 260 306 228 l 306 554 q 292 605 306 586 q 263 624 278 624 l 258 624 q 232 608 243 624 q 221 561 221 593 l 221 253 q 232 206 221 221 q 258 190 243 190 l 263 190 z "},"&":{"ha":306,"x_min":25,"x_max":281,"o":"m 185 528 l 185 469 l 156 469 q 118 449 132 469 q 104 386 104 428 l 104 133 q 117 74 104 92 q 149 57 131 57 l 157 57 q 188 74 175 57 q 201 133 201 92 l 201 392 l 281 392 l 281 122 q 249 26 281 57 q 178 -8 217 -4 l 178 -79 l 125 -79 l 125 -8 q 56 28 86 -3 q 25 122 25 58 l 25 385 q 50 467 25 442 q 110 499 75 492 q 50 533 75 506 q 25 619 25 561 l 25 847 q 56 941 25 910 q 125 978 86 972 l 125 1049 l 178 1049 l 178 978 q 249 942 217 974 q 281 847 281 911 l 281 578 l 201 578 l 201 836 q 188 895 201 878 q 157 913 175 913 l 149 913 q 117 895 131 913 q 104 836 104 878 l 104 611 q 118 549 104 569 q 156 528 132 528 l 185 528 z "},"˜":{"ha":306,"x_min":42,"x_max":264,"o":"m 42 879 q 101 921 64 921 q 146 907 125 921 q 190 893 167 893 q 228 913 210 893 l 264 889 q 235 856 250 865 q 201 847 219 847 q 156 861 176 847 q 115 875 135 875 q 94 871 104 875 q 74 856 85 867 l 42 879 z "},"+":{"ha":397,"x_min":28,"x_max":369,"o":"m 168 513 l 168 692 l 229 692 l 229 513 l 369 513 l 369 458 l 229 458 l 229 281 l 168 281 l 168 458 l 28 458 l 28 513 l 168 513 z "},"-":{"ha":335,"x_min":28,"x_max":307,"o":"m 307 513 l 307 458 l 28 458 l 28 513 l 307 513 z "},"–":{"ha":453,"x_min":28,"x_max":425,"o":"m 425 458 l 28 458 l 28 513 l 425 513 l 425 458 z "},"—":{"ha":646,"x_min":28,"x_max":619,"o":"m 619 458 l 28 458 l 28 513 l 619 513 l 619 458 z "},"_":{"ha":439,"x_min":28,"x_max":411,"o":"m 411 0 l 28 0 l 28 54 l 411 54 l 411 0 z "},"=":{"ha":411,"x_min":28,"x_max":383,"o":"m 383 586 l 383 532 l 28 532 l 28 586 l 383 586 m 383 444 l 383 390 l 28 390 l 28 444 l 383 444 z "},"•":{"ha":190,"x_min":25,"x_max":165,"o":"m 94 274 q 44 295 64 274 q 25 344 25 317 q 47 396 25 376 q 94 415 68 415 q 146 393 126 415 q 165 344 165 371 q 143 293 165 313 q 94 274 121 274 z "},"¡":{"ha":164,"x_min":42,"x_max":122,"o":"m 122 850 l 42 850 l 42 971 l 122 971 l 122 850 m 121 372 l 121 0 l 42 0 l 42 372 l 51 806 l 110 806 l 121 372 z "},"†":{"ha":269,"x_min":28,"x_max":242,"o":"m 171 971 l 171 604 l 242 604 l 242 542 l 171 542 l 171 -229 l 97 -229 l 97 542 l 28 542 l 28 604 l 97 604 l 97 971 l 171 971 z "},"‡":{"ha":269,"x_min":28,"x_max":242,"o":"m 171 971 l 171 604 l 242 604 l 242 542 l 171 542 l 171 199 l 242 199 l 242 138 l 171 138 l 171 -229 l 97 -229 l 97 138 l 28 138 l 28 199 l 97 199 l 97 542 l 28 542 l 28 604 l 97 604 l 97 971 l 171 971 z "},"›":{"ha":192,"x_min":28,"x_max":164,"o":"m 28 61 l 94 338 l 31 618 l 100 618 l 164 339 l 99 61 l 28 61 z "},"‹":{"ha":192,"x_min":28,"x_max":164,"o":"m 93 61 l 28 339 l 92 618 l 161 618 l 97 338 l 164 61 l 93 61 z "},"ˆ":{"ha":286,"x_min":28,"x_max":258,"o":"m 179 940 l 258 821 l 188 821 l 142 903 l 97 821 l 28 821 l 107 940 l 179 940 z "},"°":{"ha":172,"x_min":24,"x_max":149,"o":"m 86 844 q 42 863 60 844 q 24 907 24 882 q 42 952 24 933 q 86 971 60 971 q 131 952 113 971 q 149 907 149 933 q 131 863 149 882 q 86 844 113 844 m 86 951 q 54 939 67 951 q 42 907 42 926 q 54 876 42 889 q 86 864 67 864 q 117 876 104 864 q 131 907 131 889 q 117 939 131 926 q 86 951 104 951 z "},"'":{"ha":174,"x_min":51,"x_max":132,"o":"m 132 850 l 101 768 l 67 768 l 88 850 l 51 850 l 51 971 l 132 971 l 132 850 z "},"\"":{"ha":317,"x_min":51,"x_max":275,"o":"m 132 850 l 101 768 l 67 768 l 88 850 l 51 850 l 51 971 l 132 971 l 132 850 m 275 850 l 244 768 l 210 768 l 231 850 l 194 850 l 194 971 l 275 971 l 275 850 z "},"‚":{"ha":174,"x_min":51,"x_max":132,"o":"m 132 0 l 101 -82 l 67 -82 l 88 0 l 51 0 l 51 119 l 132 119 l 132 0 z "},"„":{"ha":317,"x_min":51,"x_max":275,"o":"m 132 0 l 101 -82 l 67 -82 l 88 0 l 51 0 l 51 121 l 132 121 l 132 0 m 275 0 l 244 -82 l 210 -82 l 231 0 l 194 0 l 194 121 l 275 121 l 275 0 z "},"~":{"ha":401,"x_min":28,"x_max":374,"o":"m 28 325 q 70 378 49 361 q 122 396 92 396 q 157 388 140 396 q 190 372 174 381 q 224 355 207 363 q 258 347 240 347 q 292 357 278 347 q 324 390 306 367 l 374 353 q 330 297 353 313 q 274 281 307 281 q 238 288 256 281 q 202 306 219 296 q 169 323 185 315 q 139 331 153 331 q 105 321 119 331 q 72 286 90 311 l 28 325 z "},"´":{"ha":211,"x_min":42,"x_max":169,"o":"m 42 821 l 100 940 l 169 940 l 90 821 l 42 821 z "},"`":{"ha":211,"x_min":42,"x_max":169,"o":"m 121 821 l 42 940 l 111 940 l 169 821 l 121 821 z "},"¨":{"ha":235,"x_min":42,"x_max":193,"o":"m 94 838 l 42 838 l 42 931 l 94 931 l 94 838 m 193 838 l 140 838 l 140 931 l 193 931 l 193 838 z "},"˚":{"ha":250,"x_min":42,"x_max":208,"o":"m 124 797 q 67 822 92 797 q 42 879 42 846 q 66 939 42 914 q 122 964 90 964 q 183 940 157 964 q 208 879 208 915 q 184 822 208 847 q 124 797 160 797 m 124 922 q 95 910 108 922 q 82 879 82 897 q 95 851 82 864 q 124 838 108 838 q 153 851 140 838 q 167 879 167 864 q 153 910 167 897 q 124 922 140 922 z "},"ˇ":{"ha":314,"x_min":42,"x_max":272,"o":"m 121 824 l 42 943 l 111 943 l 156 860 l 201 943 l 272 943 l 193 824 l 121 824 z "},"˘":{"ha":261,"x_min":42,"x_max":219,"o":"m 88 928 q 100 899 88 913 q 129 886 113 886 q 159 899 146 886 q 172 928 172 913 l 219 928 q 193 867 219 893 q 128 840 167 840 q 68 866 94 840 q 42 928 42 892 l 88 928 z "},"˝":{"ha":308,"x_min":42,"x_max":267,"o":"m 139 818 l 197 938 l 267 938 l 188 818 l 139 818 m 42 818 l 100 938 l 169 938 l 90 818 l 42 818 z "},"˙":{"ha":136,"x_min":42,"x_max":94,"o":"m 94 839 l 42 839 l 42 931 l 94 931 l 94 839 z "},"˛":{"ha":217,"x_min":42,"x_max":175,"o":"m 175 -89 q 142 -123 164 -112 q 97 -131 119 -133 q 58 -113 75 -129 q 42 -69 42 -97 q 81 0 42 -31 l 139 0 q 100 -27 115 -8 q 86 -61 85 -46 q 93 -83 86 -75 q 110 -92 100 -90 q 131 -87 119 -93 q 149 -71 142 -82 l 175 -89 z "},"¸":{"ha":249,"x_min":42,"x_max":207,"o":"m 42 -126 l 50 -90 q 81 -104 63 -100 q 116 -106 100 -108 q 143 -96 132 -104 q 153 -71 154 -87 q 132 -46 151 -51 q 97 -51 113 -40 l 81 -46 l 103 0 l 147 0 l 136 -29 q 183 -30 160 -18 q 207 -69 207 -42 q 187 -121 207 -103 q 139 -144 167 -139 q 83 -144 111 -150 q 42 -126 56 -139 z "},"B":{"ha":304,"x_min":28,"x_max":283,"o":"m 283 592 q 269 526 283 547 q 235 497 256 504 q 269 470 256 492 q 283 404 283 449 l 283 124 q 273 68 283 92 q 246 29 263 44 q 208 7 229 14 q 167 0 188 0 l 28 0 l 28 971 l 167 971 q 208 963 188 971 q 246 940 229 956 q 273 899 263 924 q 283 839 283 874 l 283 592 m 204 399 q 167 468 204 468 l 107 468 l 107 67 l 160 67 q 191 83 178 67 q 204 135 204 99 l 204 399 m 167 528 q 204 597 204 528 l 204 828 q 191 886 204 868 q 160 904 178 904 l 107 904 l 107 528 l 167 528 z "},"C":{"ha":306,"x_min":25,"x_max":281,"o":"m 142 -8 q 100 -1 121 -8 q 63 22 79 7 q 35 63 46 38 q 25 122 25 88 l 25 847 q 35 907 25 882 q 63 948 46 932 q 100 972 79 964 q 142 979 121 979 l 164 979 q 206 972 185 979 q 243 948 226 964 q 270 907 260 932 q 281 847 281 882 l 281 579 l 201 579 l 201 836 q 188 895 201 878 q 157 913 175 913 l 149 913 q 117 895 131 913 q 104 836 104 878 l 104 135 q 117 76 104 93 q 149 58 131 58 l 157 58 q 188 76 175 58 q 201 135 201 93 l 201 393 l 281 393 l 281 122 q 270 63 281 88 q 243 22 260 38 q 206 -1 226 7 q 164 -8 185 -8 l 142 -8 z "},"A":{"ha":296,"x_min":4,"x_max":292,"o":"m 190 269 l 97 269 l 72 0 l 4 0 l 96 971 l 197 971 l 292 0 l 215 0 l 190 269 m 103 329 l 185 329 l 146 747 l 143 747 l 103 329 z "},"±":{"ha":397,"x_min":28,"x_max":369,"o":"m 168 617 l 168 796 l 229 796 l 229 617 l 369 617 l 369 563 l 229 563 l 229 385 l 168 385 l 168 563 l 28 563 l 28 617 l 168 617 m 326 101 l 68 101 l 68 156 l 326 156 l 326 101 z "},"ı":{"ha":125,"x_min":28,"x_max":101,"o":"m 101 688 l 101 0 l 28 0 l 28 688 l 101 688 z "},"·":{"ha":164,"x_min":42,"x_max":122,"o":"m 122 283 l 42 283 l 42 403 l 122 403 l 122 283 z "},"¯":{"ha":264,"x_min":42,"x_max":217,"o":"m 217 857 l 42 857 l 42 911 l 217 911 l 217 857 z "},"E":{"ha":253,"x_min":28,"x_max":239,"o":"m 107 904 l 107 515 l 204 515 l 204 456 l 107 456 l 107 67 l 239 67 l 239 0 l 28 0 l 28 971 l 233 971 l 233 904 l 107 904 z "},"F":{"ha":247,"x_min":28,"x_max":233,"o":"m 107 904 l 107 515 l 204 515 l 204 456 l 107 456 l 107 0 l 28 0 l 28 971 l 233 971 l 233 904 l 107 904 z "},"G":{"ha":306,"x_min":25,"x_max":281,"o":"m 142 -8 q 100 -1 121 -8 q 63 22 79 7 q 35 63 46 38 q 25 122 25 88 l 25 847 q 35 907 25 882 q 63 948 46 932 q 100 972 79 964 q 142 979 121 979 l 164 979 q 206 972 185 979 q 243 948 226 964 q 270 907 260 932 q 281 847 281 882 l 281 579 l 201 579 l 201 836 q 188 895 201 878 q 157 913 175 913 l 149 913 q 117 895 131 913 q 104 836 104 878 l 104 135 q 117 76 104 93 q 149 58 131 58 l 157 58 q 188 76 175 58 q 201 135 201 93 l 201 326 l 154 326 l 154 393 l 281 393 l 281 0 l 242 0 l 232 33 q 151 -8 190 -8 l 142 -8 z "},"¿":{"ha":299,"x_min":25,"x_max":274,"o":"m 274 161 l 274 -107 q 263 -167 274 -142 q 236 -207 253 -192 q 199 -230 219 -222 q 157 -237 178 -237 l 143 -237 q 101 -230 122 -237 q 63 -207 79 -222 q 35 -167 46 -192 q 25 -107 25 -142 l 25 49 q 36 132 25 94 q 63 205 47 169 q 94 276 78 240 q 123 354 111 311 q 138 451 135 397 q 132 576 142 506 l 211 576 q 217 440 221 497 q 202 337 214 382 q 174 256 190 292 q 142 188 157 221 q 115 118 126 154 q 104 36 104 82 l 104 -94 q 117 -154 104 -137 q 149 -171 131 -171 l 157 -171 q 188 -153 175 -171 q 201 -96 201 -136 l 201 161 l 274 161 m 131 742 l 211 742 l 211 621 l 131 621 l 131 742 z "},"¶":{"ha":417,"x_min":25,"x_max":389,"o":"m 329 911 l 238 911 l 238 -229 l 178 -229 l 178 554 q 112 573 140 554 q 64 621 83 592 q 35 688 44 650 q 25 763 25 725 q 35 838 25 800 q 64 904 44 875 q 112 952 83 933 q 178 971 140 971 l 389 971 l 389 -229 l 329 -229 l 329 911 z "},"¬":{"ha":425,"x_min":28,"x_max":397,"o":"m 397 319 l 339 319 l 339 458 l 28 458 l 28 513 l 397 513 l 397 319 z "},"Þ":{"ha":293,"x_min":28,"x_max":268,"o":"m 107 971 l 107 831 l 163 831 q 238 799 207 831 q 268 708 268 767 l 268 258 q 238 167 268 200 q 163 135 207 135 l 107 135 l 107 0 l 28 0 l 28 971 l 107 971 m 107 769 l 107 197 l 156 197 q 182 213 171 197 q 193 260 193 228 l 193 707 q 182 754 193 739 q 156 769 171 769 l 107 769 z "},"þ":{"ha":289,"x_min":28,"x_max":268,"o":"m 107 971 l 107 692 l 163 692 q 238 659 207 692 q 268 568 268 626 l 268 118 q 238 28 268 60 q 163 -4 207 -4 l 107 -4 l 107 -229 l 28 -229 l 28 971 l 107 971 m 107 629 l 107 57 l 156 57 q 182 72 171 57 q 193 119 193 88 l 193 567 q 182 614 193 599 q 156 629 171 629 l 107 629 z "},"©":{"ha":683,"x_min":24,"x_max":663,"o":"m 24 483 q 37 672 24 583 q 86 827 50 761 q 186 931 122 893 q 350 969 250 969 q 512 931 450 969 q 607 827 574 893 q 651 672 640 761 q 663 483 663 583 q 651 294 663 383 q 607 140 640 206 q 512 35 574 74 q 350 -3 450 -3 q 186 35 250 -3 q 86 140 122 74 q 37 294 50 206 q 24 483 24 383 m 72 483 q 82 315 72 393 q 121 176 92 236 q 204 83 150 117 q 349 49 258 49 q 490 83 438 49 q 571 176 543 117 q 606 315 599 236 q 614 483 614 393 q 606 651 614 572 q 571 790 599 731 q 490 884 543 850 q 349 918 438 918 q 204 884 258 918 q 121 790 150 850 q 82 651 92 731 q 72 483 72 572 m 392 547 l 392 654 q 381 701 392 686 q 354 717 369 717 l 346 717 q 319 701 331 717 q 307 654 307 686 l 307 318 q 318 271 307 286 q 343 256 329 256 l 354 256 q 381 271 369 256 q 392 318 392 286 l 392 429 l 465 429 l 465 318 q 435 226 465 258 q 360 194 404 194 l 335 194 q 264 226 294 194 q 233 318 233 258 l 233 656 q 264 747 233 714 q 339 779 294 779 l 360 779 q 435 747 404 779 q 465 656 465 715 l 465 547 l 392 547 z "},"®":{"ha":439,"x_min":28,"x_max":411,"o":"m 28 731 q 39 827 28 782 q 74 906 50 872 q 134 960 97 940 q 222 979 171 979 q 310 960 274 979 q 368 906 346 940 q 401 827 390 872 q 411 731 411 782 q 401 634 411 679 q 368 555 390 589 q 310 501 346 521 q 222 482 274 482 q 134 501 171 482 q 74 555 97 521 q 39 634 50 589 q 28 731 28 679 m 63 731 q 71 646 63 686 q 98 576 79 606 q 147 528 117 546 q 222 511 178 511 q 297 528 268 511 q 344 576 326 546 q 368 646 361 606 q 375 731 375 686 q 368 815 375 775 q 344 884 361 854 q 297 931 326 914 q 222 949 268 949 q 147 931 178 949 q 98 884 117 914 q 71 815 79 854 q 63 731 63 775 m 285 771 q 261 722 285 735 q 285 676 285 715 l 285 599 l 249 599 l 249 667 q 226 703 249 703 l 203 703 l 203 599 l 165 599 l 165 871 l 235 871 q 285 799 285 871 l 285 771 m 228 740 q 249 778 249 740 l 249 794 q 242 826 249 817 q 225 835 235 835 l 203 835 l 203 740 l 228 740 z "},"ƒ":{"ha":301,"x_min":28,"x_max":274,"o":"m 188 625 l 188 -115 q 178 -170 188 -144 q 148 -212 168 -196 q 98 -235 128 -229 q 28 -232 68 -242 l 28 -174 q 57 -174 42 -176 q 85 -165 72 -172 q 106 -143 97 -157 q 114 -110 114 -129 l 114 625 l 31 625 l 31 688 l 114 688 l 114 857 q 124 912 114 886 q 153 954 133 938 q 203 977 174 971 q 274 974 233 983 l 274 915 q 216 906 244 921 q 188 851 188 892 l 188 688 l 271 688 l 271 625 l 188 625 z "},"Œ":{"ha":450,"x_min":25,"x_max":422,"o":"m 142 -8 q 100 -1 121 -8 q 63 22 79 7 q 35 63 46 38 q 25 122 25 88 l 25 847 q 35 907 25 882 q 63 948 46 932 q 100 972 79 964 q 142 979 121 979 l 164 979 l 172 979 l 417 979 l 417 908 l 269 908 q 281 847 281 879 l 281 515 l 388 515 l 388 456 l 281 456 l 281 122 q 269 63 281 89 l 422 63 l 422 -8 l 142 -8 m 149 913 q 117 894 131 913 q 104 836 104 876 l 104 135 q 117 76 104 93 q 149 58 131 58 l 157 58 q 188 76 175 58 q 201 135 201 93 l 201 836 q 188 894 201 876 q 157 913 175 913 l 149 913 z "},"œ":{"ha":436,"x_min":24,"x_max":415,"o":"m 129 -4 q 54 28 85 -4 q 24 118 24 60 l 24 568 q 54 659 24 626 q 129 692 85 692 l 150 692 q 218 665 189 692 q 288 692 249 692 l 308 692 q 384 660 353 692 q 415 568 415 628 l 415 328 l 256 328 l 256 119 q 267 72 256 88 q 292 57 279 57 l 303 57 q 330 72 318 57 q 342 119 342 88 l 342 286 l 415 286 l 415 119 q 384 28 415 60 q 308 -4 353 -4 l 285 -4 q 219 22 249 -4 q 150 -4 192 -4 l 129 -4 m 136 629 q 109 614 121 629 q 97 567 97 599 l 97 119 q 109 72 97 88 q 136 57 121 57 l 144 57 q 171 72 160 57 q 182 119 182 88 l 182 568 l 182 574 q 169 615 179 601 q 144 629 158 629 l 136 629 m 256 568 l 256 379 l 342 379 l 342 567 q 330 614 342 599 q 303 629 318 629 l 296 629 q 269 615 281 629 q 256 574 257 601 l 256 568 z "},"€":{"ha":351,"x_min":28,"x_max":326,"o":"m 225 421 l 149 421 l 149 135 q 162 76 149 93 q 193 58 175 58 l 203 58 q 234 76 221 58 q 247 135 247 93 l 247 393 l 326 393 l 326 122 q 316 63 326 88 q 289 22 306 38 q 251 -1 272 7 q 208 -8 229 -8 l 188 -8 q 145 -1 167 -8 q 107 22 124 7 q 80 63 90 38 q 69 122 69 88 l 69 421 l 28 421 l 28 454 l 69 454 l 69 517 l 28 517 l 28 551 l 69 551 l 69 847 q 80 907 69 882 q 107 948 90 932 q 145 972 124 964 q 188 979 167 979 l 208 979 q 251 972 229 979 q 289 948 272 964 q 316 907 306 932 q 326 847 326 882 l 326 579 l 247 579 l 247 836 q 234 895 247 878 q 203 913 221 913 l 193 913 q 162 895 175 913 q 149 836 149 878 l 149 551 l 225 551 l 225 517 l 149 517 l 149 454 l 225 454 l 225 421 z "},"™":{"ha":357,"x_min":26,"x_max":332,"o":"m 332 971 l 332 544 l 297 544 l 297 853 l 261 544 l 232 544 l 199 853 l 197 853 l 197 544 l 163 544 l 163 971 l 218 971 l 249 656 l 281 971 l 332 971 m 140 932 l 106 932 l 106 544 l 61 544 l 61 932 l 26 932 l 26 971 l 140 971 l 140 932 z "},"¢":{"ha":276,"x_min":24,"x_max":256,"o":"m 182 404 l 182 567 q 171 614 182 599 q 144 629 160 629 l 136 629 q 109 614 121 629 q 97 567 97 599 l 97 119 q 108 72 97 88 q 133 57 119 57 l 144 57 q 171 72 160 57 q 182 119 182 88 l 182 286 l 256 286 l 256 119 q 231 35 256 67 q 168 -3 206 4 l 168 -82 l 115 -82 l 115 -4 q 51 31 78 -1 q 24 119 24 63 l 24 568 q 49 653 24 621 q 115 690 75 686 l 115 769 l 168 769 l 168 690 q 231 652 206 683 q 256 568 256 621 l 256 404 l 182 404 z "},"µ":{"ha":281,"x_min":22,"x_max":257,"o":"m 257 0 l 183 0 l 183 39 q 147 8 165 19 q 108 -4 128 -4 l 104 -4 l 96 -4 l 96 -229 l 22 -229 l 22 688 l 96 688 l 96 119 q 107 72 96 88 q 133 57 118 57 l 138 57 q 168 77 153 57 q 183 129 183 97 l 183 688 l 257 688 l 257 0 z "},"Æ":{"ha":418,"x_min":4,"x_max":404,"o":"m 271 904 l 271 515 l 369 515 l 369 456 l 271 456 l 271 67 l 404 67 l 404 0 l 192 0 l 192 269 l 94 269 l 72 0 l 4 0 l 96 971 l 397 971 l 397 904 l 271 904 m 99 329 l 192 329 l 192 904 l 147 904 l 99 329 z "},"æ":{"ha":436,"x_min":24,"x_max":415,"o":"m 101 -4 q 40 28 57 -4 q 24 118 24 60 l 24 261 q 42 352 24 319 q 106 385 61 385 l 110 385 q 146 376 128 385 q 182 354 164 368 l 182 567 q 170 614 182 599 q 143 629 158 629 l 135 629 q 108 614 119 629 q 97 567 97 599 l 97 404 l 24 404 l 24 568 q 54 660 24 628 q 129 692 85 692 l 150 692 q 218 665 189 692 q 288 692 249 692 l 308 692 q 384 660 353 692 q 415 568 415 628 l 415 328 l 256 328 l 256 119 q 267 72 256 88 q 292 57 279 57 l 303 57 q 330 72 318 57 q 342 119 342 88 l 342 286 l 415 286 l 415 119 q 384 28 415 60 q 308 -4 353 -4 l 285 -4 q 237 8 260 -4 q 200 44 214 21 q 154 10 179 24 q 106 -4 129 -4 l 101 -4 m 135 329 q 108 314 119 329 q 97 267 97 299 l 97 113 q 108 65 97 81 q 135 50 119 50 l 139 50 q 168 65 154 50 q 182 113 182 81 l 182 293 q 167 321 179 313 q 143 329 154 329 l 135 329 m 256 568 l 256 567 l 256 379 l 342 379 l 342 567 q 330 614 342 599 q 303 629 318 629 l 296 629 q 269 615 281 629 q 256 574 257 601 l 256 568 z "},"÷":{"ha":481,"x_min":25,"x_max":456,"o":"m 456 458 l 25 458 l 25 513 l 456 513 l 456 458 m 281 558 l 200 558 l 200 678 l 281 678 l 281 558 m 281 290 l 200 290 l 200 411 l 281 411 l 281 290 z "},"¤":{"ha":482,"x_min":25,"x_max":457,"o":"m 361 332 q 242 292 310 292 q 121 333 174 292 l 65 278 l 25 318 l 81 374 q 51 429 61 399 q 40 494 40 460 q 51 557 40 526 q 81 613 61 588 l 25 668 l 65 708 l 122 653 q 178 683 147 672 q 242 694 208 694 q 360 653 307 694 l 417 710 l 457 669 l 400 613 q 442 494 442 560 q 431 429 442 460 q 401 372 421 399 l 457 317 l 417 276 l 361 332 m 101 494 q 142 392 101 432 q 242 353 182 353 q 296 363 271 353 q 340 392 321 374 q 369 438 358 411 q 381 494 381 464 q 369 549 381 524 q 340 592 358 574 q 296 622 321 611 q 242 633 271 633 q 187 622 213 633 q 142 592 161 611 q 113 549 124 574 q 101 494 101 524 z "},"£":{"ha":369,"x_min":25,"x_max":344,"o":"m 25 419 l 89 419 l 89 847 q 99 907 89 882 q 126 948 110 932 q 164 972 143 964 q 206 979 185 979 l 228 979 q 269 972 249 979 q 307 948 290 964 q 334 907 324 932 q 344 847 344 882 l 344 579 l 265 579 l 265 836 q 252 895 265 878 q 221 913 239 913 l 213 913 q 181 895 194 913 q 168 836 168 878 l 168 419 l 344 419 l 344 351 l 168 351 l 168 211 q 161 117 168 151 q 146 68 154 83 l 344 68 l 344 0 l 65 0 l 65 68 l 67 68 q 83 115 78 83 q 89 210 89 147 l 89 351 l 25 351 l 25 419 z "},"¥":{"ha":300,"x_min":6,"x_max":293,"o":"m 110 264 l 110 331 l 11 331 l 11 385 l 107 385 l 6 971 l 85 971 l 149 550 l 151 550 l 214 971 l 293 971 l 193 385 l 283 385 l 283 331 l 190 331 l 189 264 l 283 264 l 283 210 l 189 210 l 189 0 l 110 0 l 110 210 l 11 210 l 11 264 l 110 264 z "},"Ł":{"ha":303,"x_min":4,"x_max":290,"o":"m 171 971 l 171 568 l 258 631 l 286 583 l 171 500 l 171 60 l 290 60 l 290 0 l 92 0 l 92 444 l 32 401 l 4 449 l 92 511 l 92 971 l 171 971 z "},"ł":{"ha":242,"x_min":4,"x_max":238,"o":"m 69 407 l 32 381 l 4 428 l 69 475 l 69 971 l 143 971 l 143 528 l 210 576 l 238 528 l 143 460 l 143 0 l 69 0 l 69 407 z "},"Đ":{"ha":344,"x_min":28,"x_max":319,"o":"m 63 0 l 63 458 l 28 458 l 28 514 l 63 514 l 63 971 l 201 971 q 244 964 222 971 q 282 942 265 957 q 309 902 299 926 q 319 843 319 878 l 319 126 q 309 67 319 92 q 282 28 299 43 q 244 7 265 14 q 201 0 222 0 l 63 0 m 142 904 l 142 514 l 178 514 l 178 458 l 142 458 l 142 67 l 196 67 q 227 82 214 67 q 240 139 240 97 l 240 832 q 227 888 240 872 q 196 904 214 904 l 142 904 z "},"×":{"ha":342,"x_min":4,"x_max":338,"o":"m 128 486 l 4 610 l 47 653 l 171 529 l 294 653 l 338 610 l 214 486 l 338 363 l 294 319 l 171 443 l 47 319 l 4 363 l 128 486 z "},"¦":{"ha":143,"x_min":35,"x_max":108,"o":"m 35 407 l 108 407 l 108 -42 l 35 -42 l 35 407 m 35 1013 l 108 1013 l 108 567 l 35 567 l 35 1013 z "},"§":{"ha":276,"x_min":24,"x_max":256,"o":"m 182 651 l 182 854 q 170 901 182 885 q 143 917 158 917 l 136 917 q 109 901 121 917 q 97 854 97 885 l 97 725 q 109 671 97 694 q 138 626 121 647 q 176 585 156 606 q 215 544 197 565 q 244 496 232 522 q 256 436 256 469 l 256 332 q 226 242 256 274 q 156 210 196 211 q 190 174 172 192 q 222 135 207 156 q 246 92 236 115 q 256 39 256 68 l 256 -115 q 224 -206 256 -174 q 151 -237 193 -237 l 131 -237 q 55 -206 86 -237 q 24 -115 24 -174 l 24 108 l 90 108 l 90 -114 q 102 -160 90 -144 q 132 -176 114 -176 l 142 -176 q 170 -160 158 -176 q 182 -114 182 -144 l 182 35 q 157 108 182 78 q 103 169 132 139 q 49 235 74 200 q 24 322 24 271 l 24 435 q 49 519 24 488 q 113 557 75 550 q 81 590 97 574 q 53 626 65 607 q 32 669 40 646 q 24 719 24 692 l 24 856 q 54 947 24 914 q 129 979 85 979 l 142 979 q 217 947 186 979 q 249 856 249 914 l 249 651 l 182 651 m 182 440 q 179 456 181 449 q 175 471 178 464 q 143 496 164 496 l 136 496 q 109 480 121 496 q 97 433 97 464 l 97 328 q 106 282 97 303 q 132 271 117 271 l 142 271 q 168 284 157 271 q 182 324 179 297 l 182 433 l 182 440 z "},"²":{"ha":163,"x_min":24,"x_max":136,"o":"m 24 799 l 24 921 q 39 965 24 951 q 74 979 54 979 l 83 979 q 119 965 103 979 q 136 921 136 951 l 136 849 q 124 794 136 819 q 99 740 113 769 q 73 672 85 711 q 61 575 61 633 l 136 575 l 136 544 l 24 544 l 24 574 q 35 677 24 636 q 61 748 47 718 q 87 801 75 778 q 99 854 99 825 l 99 915 q 92 942 99 935 q 78 949 86 949 l 76 949 q 63 942 69 949 q 57 915 57 935 l 57 799 l 24 799 z "},"³":{"ha":161,"x_min":24,"x_max":138,"o":"m 79 781 q 101 817 101 781 l 101 915 q 95 941 101 935 q 81 947 89 947 l 78 947 q 65 941 71 947 q 60 917 60 935 l 60 803 l 24 803 l 24 921 q 40 965 24 951 q 75 979 56 979 l 85 979 q 121 965 104 979 q 138 921 138 951 l 138 821 q 126 783 138 796 q 100 768 115 771 q 126 753 115 765 q 138 717 138 742 l 138 601 q 121 558 138 571 q 85 544 104 544 l 75 544 q 40 558 56 544 q 24 601 24 571 l 24 721 l 60 721 l 60 607 q 65 581 60 588 q 79 575 71 575 l 82 575 q 95 581 89 575 q 101 607 101 588 l 101 718 q 79 754 101 754 l 65 754 l 65 781 l 79 781 z "},"¹":{"ha":124,"x_min":22,"x_max":96,"o":"m 58 544 l 58 917 q 40 910 51 914 q 22 907 29 907 l 22 936 q 49 947 36 936 q 64 971 61 957 l 96 971 l 96 544 l 58 544 z "},"ª":{"ha":193,"x_min":24,"x_max":171,"o":"m 72 544 q 34 565 44 544 q 24 621 24 585 l 24 710 q 35 767 24 746 q 75 788 47 788 l 78 788 q 122 768 100 788 l 122 900 q 114 930 122 919 q 97 940 106 940 l 93 940 q 78 930 85 940 q 71 900 71 919 l 71 799 l 24 799 l 24 901 q 43 959 24 939 q 90 979 63 979 l 103 979 q 151 958 131 979 q 171 900 171 938 l 171 547 l 122 547 l 122 564 q 75 544 99 544 l 72 544 m 93 753 q 71 711 71 753 l 71 619 q 78 590 71 600 q 94 579 86 579 q 112 588 104 579 q 122 614 119 596 l 122 726 q 114 747 122 742 q 97 753 106 753 l 93 753 z "},"º":{"ha":163,"x_min":25,"x_max":138,"o":"m 76 544 q 41 558 57 544 q 25 603 25 571 l 25 921 q 41 965 25 951 q 76 979 57 979 l 86 979 q 122 965 106 979 q 138 921 138 951 l 138 603 q 122 558 138 571 q 86 544 106 544 l 76 544 m 79 947 q 61 915 61 947 l 61 607 q 79 575 61 575 l 83 575 q 101 607 101 575 l 101 915 q 83 947 101 947 l 79 947 z "},"¼":{"ha":376,"x_min":33,"x_max":344,"o":"m 306 971 l 344 971 l 72 0 l 33 0 l 306 971 m 318 94 l 318 64 l 299 64 l 300 0 l 268 0 l 267 64 l 186 64 l 185 94 l 253 424 l 297 424 l 299 94 l 318 94 m 86 544 l 86 917 q 68 910 79 914 q 49 907 57 907 l 49 936 q 76 947 63 936 q 92 971 89 957 l 122 971 l 122 544 l 86 544 m 267 325 l 265 325 l 219 96 l 219 94 l 267 94 l 267 325 z "},"½":{"ha":385,"x_min":33,"x_max":347,"o":"m 306 971 l 344 971 l 72 0 l 33 0 l 306 971 m 86 544 l 86 917 q 68 910 79 914 q 49 907 57 907 l 49 936 q 76 947 63 936 q 92 971 89 957 l 122 971 l 122 544 l 86 544 m 233 254 l 233 376 q 249 421 233 407 q 285 435 265 435 l 294 435 q 329 421 313 435 q 346 376 346 407 l 346 304 q 334 250 346 275 q 308 196 322 225 q 283 128 294 167 q 271 31 271 89 l 347 31 l 347 0 l 233 0 l 233 29 q 245 133 233 92 q 271 203 257 174 q 297 257 285 233 q 308 310 308 281 l 308 371 q 302 397 308 390 q 289 404 296 404 l 286 404 q 273 397 279 404 q 267 371 267 390 l 267 254 l 233 254 z "},"¾":{"ha":383,"x_min":33,"x_max":344,"o":"m 306 971 l 344 971 l 72 0 l 33 0 l 306 971 m 286 231 q 308 267 308 231 l 308 367 q 302 392 308 386 q 288 399 296 399 l 285 399 q 272 392 278 399 q 267 368 267 386 l 267 251 l 231 251 l 231 372 q 247 417 231 403 q 282 431 263 431 l 292 431 q 328 417 311 431 q 344 372 344 403 l 344 271 q 333 233 344 246 q 307 217 322 219 q 333 202 322 214 q 344 167 344 190 l 344 49 q 328 5 344 18 q 292 -8 311 -8 l 282 -8 q 247 5 263 -8 q 231 49 231 18 l 231 169 l 267 169 l 267 54 q 272 28 267 35 q 286 22 278 22 l 289 22 q 302 28 296 22 q 308 54 308 35 l 308 168 q 286 204 308 204 l 272 204 l 272 231 l 286 231 m 86 544 l 86 917 q 68 910 79 914 q 49 907 57 907 l 49 936 q 76 947 63 936 q 92 971 89 957 l 122 971 l 122 544 l 86 544 z "},"ß":{"ha":329,"x_min":28,"x_max":304,"o":"m 174 528 q 211 549 197 528 q 225 611 225 569 l 225 836 q 208 895 225 878 q 174 913 192 913 l 158 913 q 124 895 140 913 q 107 836 107 878 l 107 0 l 28 0 l 28 847 q 39 907 28 882 q 68 948 50 932 q 108 972 86 964 q 151 979 131 979 l 181 979 q 224 972 201 979 q 264 948 246 964 q 293 907 282 932 q 304 847 304 882 l 304 619 q 278 533 304 561 q 218 499 253 506 q 278 467 253 492 q 304 385 304 442 l 304 131 q 294 71 304 96 q 267 31 283 46 q 229 8 250 15 q 188 0 208 0 l 140 0 l 140 67 l 174 67 q 208 83 192 67 q 225 143 225 100 l 225 386 q 211 449 225 428 q 174 469 197 469 l 140 469 l 140 528 l 174 528 z "},"Ø":{"ha":399,"x_min":28,"x_max":371,"o":"m 188 -8 q 133 3 160 -8 q 90 43 107 15 l 74 -14 l 28 -14 l 71 131 l 71 847 q 81 907 71 882 q 108 948 92 932 q 146 972 125 964 q 188 979 167 979 l 210 979 q 264 966 238 979 q 307 925 290 953 l 325 985 l 371 985 l 326 835 l 326 122 q 316 63 326 88 q 289 22 306 38 q 251 -1 272 7 q 210 -8 231 -8 l 188 -8 m 194 913 q 163 894 176 913 q 150 836 150 876 l 150 396 l 247 724 l 247 836 q 234 894 247 876 q 203 913 221 913 l 194 913 m 194 58 l 203 58 q 234 76 221 58 q 247 135 247 93 l 247 569 l 150 242 l 150 135 q 163 76 150 93 q 194 58 176 58 z "},"ø":{"ha":319,"x_min":24,"x_max":296,"o":"m 151 -4 q 82 22 108 -4 l 69 -18 l 24 -18 l 51 72 q 46 118 46 90 l 46 568 q 77 659 47 626 q 151 692 107 692 l 172 692 q 238 668 210 692 l 250 706 l 296 706 l 269 622 q 279 568 279 601 l 279 118 q 248 28 279 60 q 172 -4 217 -4 l 151 -4 m 160 57 l 167 57 q 194 72 182 57 q 206 119 206 88 l 206 417 l 119 142 l 119 119 q 132 72 119 88 q 160 57 144 57 m 160 629 q 132 614 144 629 q 119 567 119 599 l 119 288 l 206 563 l 206 567 q 194 614 206 599 q 167 629 182 629 l 160 629 z "},"₹":{"ha":417,"x_min":28,"x_max":389,"o":"m 28 786 l 244 786 l 244 832 q 230 889 244 872 q 192 908 215 906 l 28 908 l 28 971 l 213 971 l 221 971 l 389 971 l 389 908 l 306 908 q 318 847 318 881 l 318 786 l 389 786 l 389 725 l 318 725 l 318 585 q 309 533 318 556 q 285 494 300 510 q 250 469 269 478 q 210 461 231 461 l 129 461 l 319 0 l 232 0 l 40 471 l 40 517 l 181 517 q 227 536 210 517 q 244 593 244 556 l 244 725 l 28 725 l 28 786 z "},"₦":{"ha":457,"x_min":28,"x_max":429,"o":"m 429 586 l 429 532 l 381 532 l 381 444 l 429 444 l 429 390 l 381 390 l 381 0 l 290 0 l 218 390 l 153 390 l 153 0 l 86 0 l 86 390 l 28 390 l 28 444 l 86 444 l 86 532 l 28 532 l 28 586 l 86 586 l 86 971 l 176 971 l 246 586 l 308 586 l 308 971 l 381 971 l 381 586 l 429 586 m 153 444 l 207 444 l 192 532 l 153 532 l 153 444 m 271 444 l 308 444 l 308 532 l 256 532 l 271 444 m 153 731 l 153 586 l 181 586 l 154 731 l 153 731 m 307 249 l 308 249 l 308 390 l 281 390 l 307 249 z "},"₧":{"ha":411,"x_min":28,"x_max":383,"o":"m 226 971 q 308 938 274 971 q 343 840 343 904 l 343 715 l 383 715 l 383 661 l 343 661 l 343 521 q 312 435 343 461 q 233 410 281 410 l 165 410 l 165 0 l 86 0 l 86 661 l 28 661 l 28 715 l 86 715 l 86 971 l 226 971 m 165 715 l 264 715 l 264 828 q 251 886 264 868 q 218 904 238 904 l 165 904 l 165 715 m 264 661 l 165 661 l 165 475 l 225 475 q 264 544 264 475 l 264 661 z "},"₩":{"ha":574,"x_min":28,"x_max":546,"o":"m 103 438 l 96 539 l 28 539 l 28 593 l 92 593 l 64 971 l 139 971 l 165 593 l 221 593 l 256 971 l 321 971 l 360 593 l 418 593 l 444 971 l 514 971 l 486 593 l 546 593 l 546 539 l 482 539 l 474 438 l 546 438 l 546 383 l 469 383 l 442 0 l 363 0 l 319 383 l 261 383 l 224 0 l 136 0 l 107 383 l 28 383 l 28 438 l 103 438 m 375 438 l 407 438 l 414 539 l 365 539 l 375 438 m 176 438 l 207 438 l 215 539 l 169 539 l 176 438 m 267 438 l 314 438 l 303 539 l 276 539 l 267 438 m 192 269 l 201 383 l 181 383 l 189 269 l 192 269 m 394 269 l 403 383 l 381 383 l 393 269 l 394 269 m 282 593 l 296 593 l 289 663 l 282 593 z "},"₣":{"ha":303,"x_min":28,"x_max":275,"o":"m 149 904 l 149 515 l 247 515 l 247 456 l 149 456 l 149 279 l 192 279 l 192 225 l 149 225 l 149 0 l 69 0 l 69 225 l 28 225 l 28 279 l 69 279 l 69 971 l 275 971 l 275 904 l 149 904 z "},"đ":{"ha":325,"x_min":24,"x_max":314,"o":"m 256 0 l 196 0 l 188 42 q 151 8 171 21 q 113 -4 132 -4 l 108 -4 q 44 28 64 -4 q 24 118 24 60 l 24 568 q 42 659 24 626 q 106 692 61 692 l 110 692 q 147 681 128 692 q 182 650 165 669 l 182 826 l 133 826 l 133 881 l 182 881 l 182 971 l 256 971 l 256 881 l 314 881 l 314 826 l 256 826 l 256 0 m 136 629 q 109 614 121 629 q 97 567 97 599 l 97 119 q 108 72 97 88 q 135 57 119 57 l 139 57 q 168 76 154 57 q 182 126 182 94 l 182 560 q 168 610 182 592 q 139 629 154 629 l 136 629 z "},"Ã":{"ha":296,"x_min":4,"x_max":292,"o":"m 215 0 l 292 0 l 197 971 l 96 971 l 4 0 l 72 0 l 97 269 l 190 269 l 215 0 m 143 747 l 146 747 l 185 329 l 103 329 l 143 747 m 38 1082 q 97 1124 60 1124 q 142 1110 121 1124 q 186 1096 163 1096 q 224 1115 206 1096 l 260 1092 q 231 1059 246 1068 q 197 1050 215 1050 q 151 1064 172 1050 q 111 1078 131 1078 q 90 1074 100 1078 q 69 1058 81 1069 l 38 1082 z "},"Â":{"ha":296,"x_min":4,"x_max":292,"o":"m 190 269 l 97 269 l 72 0 l 4 0 l 96 971 l 197 971 l 292 0 l 215 0 l 190 269 m 103 329 l 185 329 l 146 747 l 143 747 l 103 329 m 183 1144 l 263 1025 l 193 1025 l 147 1107 l 103 1025 l 32 1025 l 111 1144 l 183 1144 z "},"Á":{"ha":296,"x_min":4,"x_max":292,"o":"m 190 269 l 97 269 l 72 0 l 4 0 l 96 971 l 197 971 l 292 0 l 215 0 l 190 269 m 103 329 l 185 329 l 146 747 l 143 747 l 103 329 m 121 1025 l 179 1144 l 250 1144 l 171 1025 l 121 1025 z "},"À":{"ha":296,"x_min":4,"x_max":292,"o":"m 215 0 l 292 0 l 197 971 l 96 971 l 4 0 l 72 0 l 97 269 l 190 269 l 215 0 m 143 747 l 146 747 l 185 329 l 103 329 l 143 747 m 124 1025 l 44 1144 l 114 1144 l 172 1025 l 124 1025 z "},"Ä":{"ha":296,"x_min":4,"x_max":292,"o":"m 215 0 l 292 0 l 197 971 l 96 971 l 4 0 l 72 0 l 97 269 l 190 269 l 215 0 m 143 747 l 146 747 l 185 329 l 103 329 l 143 747 m 124 1042 l 71 1042 l 71 1133 l 124 1133 l 124 1042 m 222 1042 l 169 1042 l 169 1133 l 222 1133 l 222 1042 z "},"Å":{"ha":296,"x_min":4,"x_max":292,"o":"m 215 0 l 292 0 l 197 971 l 96 971 l 4 0 l 72 0 l 97 269 l 190 269 l 215 0 m 147 1015 q 90 1040 115 1015 q 65 1096 65 1064 q 90 1156 65 1131 q 146 1182 114 1182 q 206 1157 181 1182 q 232 1096 232 1132 q 208 1040 232 1064 q 147 1015 183 1015 m 143 747 l 146 747 l 185 329 l 103 329 l 143 747 m 147 1140 q 119 1127 132 1140 q 106 1097 106 1114 q 119 1069 106 1082 q 147 1056 132 1056 q 177 1069 164 1056 q 190 1097 190 1082 q 177 1127 190 1114 q 147 1140 164 1140 z "},"Ç":{"ha":306,"x_min":25,"x_max":281,"o":"m 69 -135 l 78 -99 q 109 -112 90 -108 q 144 -115 128 -117 q 172 -104 161 -112 q 182 -79 183 -96 q 160 -56 179 -61 q 125 -60 140 -50 l 108 -54 l 131 -8 l 133 -8 q 93 1 113 -7 q 58 25 74 10 q 34 65 43 40 q 25 122 25 89 l 25 847 q 35 907 25 882 q 63 948 46 932 q 100 972 79 964 q 142 979 121 979 l 164 979 q 206 972 185 979 q 243 948 226 964 q 270 907 260 932 q 281 847 281 882 l 281 579 l 201 579 l 201 836 q 188 895 201 878 q 157 913 175 913 l 149 913 q 117 895 131 913 q 104 836 104 878 l 104 135 q 117 76 104 93 q 149 58 131 58 l 157 58 q 188 76 175 58 q 201 135 201 93 l 201 393 l 281 393 l 281 122 q 272 65 281 89 q 247 25 263 40 q 213 1 232 10 q 172 -8 193 -7 l 175 -8 l 164 -37 q 212 -38 189 -26 q 235 -78 235 -50 q 215 -129 235 -111 q 167 -153 194 -147 q 111 -153 139 -158 q 69 -135 83 -147 z "},"Ê":{"ha":253,"x_min":18,"x_max":249,"o":"m 107 904 l 107 515 l 204 515 l 204 456 l 107 456 l 107 67 l 239 67 l 239 0 l 28 0 l 28 971 l 233 971 l 233 904 l 107 904 m 169 1144 l 249 1025 l 179 1025 l 133 1107 l 89 1025 l 18 1025 l 97 1144 l 169 1144 z "},"É":{"ha":253,"x_min":28,"x_max":239,"o":"m 107 904 l 107 515 l 204 515 l 204 456 l 107 456 l 107 67 l 239 67 l 239 0 l 28 0 l 28 971 l 233 971 l 233 904 l 107 904 m 107 1025 l 165 1144 l 236 1144 l 157 1025 l 107 1025 z "},"È":{"ha":253,"x_min":28,"x_max":239,"o":"m 233 904 l 233 971 l 28 971 l 28 0 l 239 0 l 239 67 l 107 67 l 107 456 l 204 456 l 204 515 l 107 515 l 107 904 l 233 904 m 110 1025 l 31 1144 l 100 1144 l 158 1025 l 110 1025 z "},"Ë":{"ha":253,"x_min":28,"x_max":239,"o":"m 233 904 l 233 971 l 28 971 l 28 0 l 239 0 l 239 67 l 107 67 l 107 456 l 204 456 l 204 515 l 107 515 l 107 904 l 233 904 m 110 1042 l 57 1042 l 57 1133 l 110 1133 l 110 1042 m 208 1042 l 156 1042 l 156 1133 l 208 1133 l 208 1042 z "},"Î":{"ha":135,"x_min":-47,"x_max":183,"o":"m 107 971 l 107 0 l 28 0 l 28 971 l 107 971 m 104 1153 l 183 1033 l 113 1033 l 67 1115 l 22 1033 l -47 1033 l 32 1153 l 104 1153 z "},"Í":{"ha":135,"x_min":28,"x_max":169,"o":"m 107 971 l 107 0 l 28 0 l 28 971 l 107 971 m 42 1033 l 100 1153 l 169 1153 l 90 1033 l 42 1033 z "},"Ì":{"ha":135,"x_min":-36,"x_max":107,"o":"m 28 971 l 28 0 l 107 0 l 107 971 l 28 971 m 43 1033 l -36 1153 l 35 1153 l 93 1033 l 43 1033 z "},"Ï":{"ha":135,"x_min":-8,"x_max":143,"o":"m 28 971 l 28 0 l 107 0 l 107 971 l 28 971 m 44 1050 l -8 1050 l -8 1143 l 44 1143 l 44 1050 m 143 1050 l 90 1050 l 90 1143 l 143 1143 l 143 1050 z "},"Ñ":{"ha":339,"x_min":22,"x_max":317,"o":"m 226 0 l 90 731 l 89 731 l 89 0 l 22 0 l 22 971 l 113 971 l 243 249 l 244 249 l 244 971 l 317 971 l 317 0 l 226 0 m 60 1082 q 119 1124 83 1124 q 165 1110 143 1124 q 210 1096 186 1096 q 246 1115 228 1096 l 282 1092 q 253 1059 268 1068 q 219 1050 238 1050 q 174 1064 196 1050 q 133 1078 153 1078 q 113 1074 122 1078 q 93 1058 103 1069 l 60 1082 z "},"Õ":{"ha":306,"x_min":25,"x_max":281,"o":"m 142 -8 q 100 -1 121 -8 q 63 22 79 7 q 35 63 46 38 q 25 122 25 88 l 25 847 q 35 907 25 882 q 63 948 46 932 q 100 972 79 964 q 142 979 121 979 l 164 979 q 206 972 185 979 q 243 948 226 964 q 270 907 260 932 q 281 847 281 882 l 281 122 q 270 63 281 88 q 243 22 260 38 q 206 -1 226 7 q 164 -8 185 -8 l 142 -8 m 149 913 q 117 894 131 913 q 104 836 104 876 l 104 135 q 117 76 104 93 q 149 58 131 58 l 157 58 q 188 76 175 58 q 201 135 201 93 l 201 836 q 188 894 201 876 q 157 913 175 913 l 149 913 m 43 1082 q 103 1124 65 1124 q 147 1110 126 1124 q 192 1096 168 1096 q 229 1115 211 1096 l 265 1092 q 236 1059 251 1068 q 203 1050 221 1050 q 157 1064 178 1050 q 117 1078 136 1078 q 96 1074 106 1078 q 75 1058 86 1069 l 43 1082 z "},"Ô":{"ha":306,"x_min":25,"x_max":281,"o":"m 142 -8 q 100 -1 121 -8 q 63 22 79 7 q 35 63 46 38 q 25 122 25 88 l 25 847 q 35 907 25 882 q 63 948 46 932 q 100 972 79 964 q 142 979 121 979 l 164 979 q 206 972 185 979 q 243 948 226 964 q 270 907 260 932 q 281 847 281 882 l 281 122 q 270 63 281 88 q 243 22 260 38 q 206 -1 226 7 q 164 -8 185 -8 l 142 -8 m 149 913 q 117 894 131 913 q 104 836 104 876 l 104 135 q 117 76 104 93 q 149 58 131 58 l 157 58 q 188 76 175 58 q 201 135 201 93 l 201 836 q 188 894 201 876 q 157 913 175 913 l 149 913 m 189 1144 l 268 1025 l 199 1025 l 153 1107 l 108 1025 l 38 1025 l 117 1144 l 189 1144 z "},"Ó":{"ha":306,"x_min":25,"x_max":281,"o":"m 142 -8 q 100 -1 121 -8 q 63 22 79 7 q 35 63 46 38 q 25 122 25 88 l 25 847 q 35 907 25 882 q 63 948 46 932 q 100 972 79 964 q 142 979 121 979 l 164 979 q 206 972 185 979 q 243 948 226 964 q 270 907 260 932 q 281 847 281 882 l 281 122 q 270 63 281 88 q 243 22 260 38 q 206 -1 226 7 q 164 -8 185 -8 l 142 -8 m 149 913 q 117 894 131 913 q 104 836 104 876 l 104 135 q 117 76 104 93 q 149 58 131 58 l 157 58 q 188 76 175 58 q 201 135 201 93 l 201 836 q 188 894 201 876 q 157 913 175 913 l 149 913 m 126 1025 l 185 1144 l 256 1144 l 176 1025 l 126 1025 z "},"Ò":{"ha":306,"x_min":25,"x_max":281,"o":"m 142 -8 q 100 -1 121 -8 q 63 22 79 7 q 35 63 46 38 q 25 122 25 88 l 25 847 q 35 907 25 882 q 63 948 46 932 q 100 972 79 964 q 142 979 121 979 l 164 979 q 206 972 185 979 q 243 948 226 964 q 270 907 260 932 q 281 847 281 882 l 281 122 q 270 63 281 88 q 243 22 260 38 q 206 -1 226 7 q 164 -8 185 -8 l 142 -8 m 149 913 q 117 894 131 913 q 104 836 104 876 l 104 135 q 117 76 104 93 q 149 58 131 58 l 157 58 q 188 76 175 58 q 201 135 201 93 l 201 836 q 188 894 201 876 q 157 913 175 913 l 149 913 m 129 1025 l 50 1144 l 119 1144 l 178 1025 l 129 1025 z "},"Ö":{"ha":306,"x_min":25,"x_max":281,"o":"m 142 -8 q 100 -1 121 -8 q 63 22 79 7 q 35 63 46 38 q 25 122 25 88 l 25 847 q 35 907 25 882 q 63 948 46 932 q 100 972 79 964 q 142 979 121 979 l 164 979 q 206 972 185 979 q 243 948 226 964 q 270 907 260 932 q 281 847 281 882 l 281 122 q 270 63 281 88 q 243 22 260 38 q 206 -1 226 7 q 164 -8 185 -8 l 142 -8 m 149 913 q 117 894 131 913 q 104 836 104 876 l 104 135 q 117 76 104 93 q 149 58 131 58 l 157 58 q 188 76 175 58 q 201 135 201 93 l 201 836 q 188 894 201 876 q 157 913 175 913 l 149 913 m 129 1042 l 76 1042 l 76 1133 l 129 1133 l 129 1042 m 228 1042 l 175 1042 l 175 1133 l 228 1133 l 228 1042 z "},"Û":{"ha":308,"x_min":28,"x_max":283,"o":"m 144 -8 q 103 -1 124 -8 q 65 22 82 7 q 38 63 49 38 q 28 122 28 88 l 28 971 l 107 971 l 107 135 q 120 76 107 93 q 151 58 133 58 l 160 58 q 191 76 178 58 q 204 135 204 93 l 204 971 l 283 971 l 283 122 q 273 63 283 88 q 246 22 263 38 q 208 -1 229 7 q 167 -8 188 -8 l 144 -8 m 192 1144 l 271 1025 l 201 1025 l 156 1107 l 111 1025 l 40 1025 l 119 1144 l 192 1144 z "},"Ú":{"ha":308,"x_min":28,"x_max":283,"o":"m 144 -8 q 103 -1 124 -8 q 65 22 82 7 q 38 63 49 38 q 28 122 28 88 l 28 971 l 107 971 l 107 135 q 120 76 107 93 q 151 58 133 58 l 160 58 q 191 76 178 58 q 204 135 204 93 l 204 971 l 283 971 l 283 122 q 273 63 283 88 q 246 22 263 38 q 208 -1 229 7 q 167 -8 188 -8 l 144 -8 m 129 1025 l 188 1144 l 258 1144 l 179 1025 l 129 1025 z "},"Ù":{"ha":308,"x_min":28,"x_max":283,"o":"m 144 -8 q 103 -1 124 -8 q 65 22 82 7 q 38 63 49 38 q 28 122 28 88 l 28 971 l 107 971 l 107 135 q 120 76 107 93 q 151 58 133 58 l 160 58 q 191 76 178 58 q 204 135 204 93 l 204 971 l 283 971 l 283 122 q 273 63 283 88 q 246 22 263 38 q 208 -1 229 7 q 167 -8 188 -8 l 144 -8 m 132 1025 l 53 1144 l 122 1144 l 181 1025 l 132 1025 z "},"Ü":{"ha":308,"x_min":28,"x_max":283,"o":"m 144 -8 q 103 -1 124 -8 q 65 22 82 7 q 38 63 49 38 q 28 122 28 88 l 28 971 l 107 971 l 107 135 q 120 76 107 93 q 151 58 133 58 l 160 58 q 191 76 178 58 q 204 135 204 93 l 204 971 l 283 971 l 283 122 q 273 63 283 88 q 246 22 263 38 q 208 -1 229 7 q 167 -8 188 -8 l 144 -8 m 132 1042 l 79 1042 l 79 1133 l 132 1133 l 132 1042 m 231 1042 l 178 1042 l 178 1133 l 231 1133 l 231 1042 z "},"Ý":{"ha":296,"x_min":4,"x_max":292,"o":"m 188 369 l 188 0 l 108 0 l 108 369 l 4 971 l 83 971 l 146 550 l 149 550 l 213 971 l 292 971 l 188 369 m 122 1025 l 181 1144 l 250 1144 l 171 1025 l 122 1025 z "},"ã":{"ha":276,"x_min":24,"x_max":256,"o":"m 101 -4 q 40 28 57 -4 q 24 118 24 60 l 24 261 q 42 352 24 319 q 106 385 61 385 l 110 385 q 146 376 128 385 q 182 354 164 368 l 182 567 q 170 614 182 599 q 143 629 158 629 l 135 629 q 108 614 119 629 q 97 567 97 599 l 97 404 l 24 404 l 24 568 q 54 660 24 628 q 129 692 85 692 l 150 692 q 225 659 194 692 q 256 568 256 626 l 256 0 l 182 0 l 182 28 q 143 4 163 13 q 106 -4 124 -4 l 101 -4 m 135 329 q 108 314 119 329 q 97 267 97 299 l 97 113 q 108 65 97 81 q 135 50 119 50 l 139 50 q 167 63 154 50 q 182 106 179 76 l 182 289 q 169 321 182 313 q 143 329 156 329 l 135 329 m 31 800 q 90 842 53 842 q 135 828 114 842 q 179 814 156 814 q 217 833 199 814 l 253 810 q 224 777 239 786 q 190 768 208 768 q 144 782 165 768 q 104 796 124 796 q 83 792 93 796 q 63 776 74 788 l 31 800 z "},"â":{"ha":276,"x_min":24,"x_max":256,"o":"m 101 -4 q 40 28 57 -4 q 24 118 24 60 l 24 261 q 42 352 24 319 q 106 385 61 385 l 110 385 q 146 376 128 385 q 182 354 164 368 l 182 567 q 170 614 182 599 q 143 629 158 629 l 135 629 q 108 614 119 629 q 97 567 97 599 l 97 404 l 24 404 l 24 568 q 54 660 24 628 q 129 692 85 692 l 150 692 q 225 659 194 692 q 256 568 256 626 l 256 0 l 182 0 l 182 28 q 143 4 163 13 q 106 -4 124 -4 l 101 -4 m 135 329 q 108 314 119 329 q 97 267 97 299 l 97 113 q 108 65 97 81 q 135 50 119 50 l 139 50 q 168 65 154 50 q 182 113 182 81 l 182 293 q 167 321 179 313 q 143 329 154 329 l 135 329 m 176 863 l 256 743 l 186 743 l 140 825 l 96 743 l 25 743 l 104 863 l 176 863 z "},"á":{"ha":276,"x_min":24,"x_max":256,"o":"m 101 -4 q 40 28 57 -4 q 24 118 24 60 l 24 261 q 42 352 24 319 q 106 385 61 385 l 110 385 q 146 376 128 385 q 182 354 164 368 l 182 567 q 170 614 182 599 q 143 629 158 629 l 135 629 q 108 614 119 629 q 97 567 97 599 l 97 404 l 24 404 l 24 568 q 54 660 24 628 q 129 692 85 692 l 150 692 q 225 659 194 692 q 256 568 256 626 l 256 0 l 182 0 l 182 28 q 143 4 163 13 q 106 -4 124 -4 l 101 -4 m 135 329 q 108 314 119 329 q 97 267 97 299 l 97 113 q 108 65 97 81 q 135 50 119 50 l 139 50 q 168 65 154 50 q 182 113 182 81 l 182 289 q 169 321 182 313 q 143 329 156 329 l 135 329 m 114 743 l 172 863 l 243 863 l 164 743 l 114 743 z "},"à":{"ha":276,"x_min":24,"x_max":256,"o":"m 101 -4 q 40 28 57 -4 q 24 118 24 60 l 24 261 q 42 352 24 319 q 106 385 61 385 l 110 385 q 146 376 128 385 q 182 354 164 368 l 182 567 q 170 614 182 599 q 143 629 158 629 l 135 629 q 108 614 119 629 q 97 567 97 599 l 97 404 l 24 404 l 24 568 q 54 660 24 628 q 129 692 85 692 l 150 692 q 225 659 194 692 q 256 568 256 626 l 256 0 l 182 0 l 182 28 q 143 4 163 13 q 106 -4 124 -4 l 101 -4 m 135 329 q 108 314 119 329 q 97 267 97 299 l 97 113 q 108 65 97 81 q 135 50 119 50 l 139 50 q 168 65 154 50 q 182 113 182 81 l 182 293 q 167 321 179 313 q 143 329 154 329 l 135 329 m 117 743 l 38 863 l 107 863 l 165 743 l 117 743 z "},"ä":{"ha":276,"x_min":24,"x_max":256,"o":"m 101 -4 q 40 28 57 -4 q 24 118 24 60 l 24 261 q 42 352 24 319 q 106 385 61 385 l 110 385 q 146 376 128 385 q 182 354 164 368 l 182 567 q 170 614 182 599 q 143 629 158 629 l 135 629 q 108 614 119 629 q 97 567 97 599 l 97 404 l 24 404 l 24 568 q 54 660 24 628 q 129 692 85 692 l 150 692 q 225 659 194 692 q 256 568 256 626 l 256 0 l 182 0 l 182 28 q 143 4 163 13 q 106 -4 124 -4 l 101 -4 m 135 329 q 108 314 119 329 q 97 267 97 299 l 97 113 q 108 65 97 81 q 135 50 119 50 l 139 50 q 168 65 154 50 q 182 113 182 81 l 182 293 q 167 321 179 313 q 143 329 154 329 l 135 329 m 215 760 l 163 760 l 163 851 l 215 851 l 215 760 m 117 760 l 64 760 l 64 851 l 117 851 l 117 760 z "},"å":{"ha":276,"x_min":24,"x_max":256,"o":"m 101 -4 q 40 28 57 -4 q 24 118 24 60 l 24 261 q 42 352 24 319 q 106 385 61 385 l 110 385 q 146 376 128 385 q 182 354 164 368 l 182 567 q 170 614 182 599 q 143 629 158 629 l 135 629 q 108 614 119 629 q 97 567 97 599 l 97 404 l 24 404 l 24 568 q 54 660 24 628 q 129 692 85 692 l 150 692 q 225 659 194 692 q 256 568 256 626 l 256 0 l 182 0 l 182 28 q 143 4 163 13 q 106 -4 124 -4 l 101 -4 m 135 329 q 108 314 119 329 q 97 267 97 299 l 97 113 q 108 65 97 81 q 135 50 119 50 l 139 50 q 168 65 154 50 q 182 113 182 81 l 182 289 q 169 321 182 313 q 143 329 156 329 l 135 329 m 140 733 q 83 758 108 733 q 58 814 58 782 q 83 874 58 849 q 139 900 107 900 q 199 875 174 900 q 225 814 225 850 q 201 758 225 782 q 140 733 176 733 m 140 858 q 112 845 125 858 q 99 815 99 832 q 112 787 99 800 q 140 774 125 774 q 170 787 157 774 q 183 815 183 800 q 170 845 183 832 q 140 858 157 858 z "},"ç":{"ha":276,"x_min":24,"x_max":256,"o":"m 56 -131 l 64 -94 q 95 -108 76 -104 q 130 -110 114 -112 q 157 -100 146 -108 q 167 -75 168 -92 q 146 -50 165 -56 q 111 -56 126 -44 l 94 -50 l 117 -4 q 51 31 78 -1 q 24 119 24 63 l 24 568 q 54 659 24 626 q 129 692 85 692 l 150 692 q 225 660 194 692 q 256 568 256 628 l 256 404 l 182 404 l 182 567 q 171 614 182 599 q 144 629 160 629 l 136 629 q 109 614 121 629 q 97 567 97 599 l 97 119 q 108 72 97 88 q 133 57 119 57 l 144 57 q 171 72 160 57 q 182 119 182 88 l 182 286 l 256 286 l 256 119 q 228 31 256 63 q 160 -4 200 -1 l 150 -33 q 197 -34 174 -22 q 221 -74 221 -46 q 201 -125 221 -107 q 153 -149 181 -143 q 97 -149 125 -154 q 56 -131 69 -143 z "},"ê":{"ha":276,"x_min":24,"x_max":256,"o":"m 133 57 l 144 57 q 171 72 160 57 q 182 119 182 88 l 182 286 l 256 286 l 256 119 q 225 28 256 60 q 150 -4 194 -4 l 125 -4 q 54 28 85 -4 q 24 119 24 60 l 24 568 q 54 659 24 626 q 129 692 85 692 l 150 692 q 225 660 194 692 q 256 568 256 628 l 256 328 l 97 328 l 97 119 q 108 72 97 88 q 133 57 119 57 m 182 379 l 182 567 q 171 614 182 599 q 144 629 160 629 l 136 629 q 109 614 121 629 q 97 567 97 599 l 97 379 l 182 379 m 175 863 l 254 743 l 185 743 l 139 825 l 94 743 l 24 743 l 103 863 l 175 863 z "},"é":{"ha":276,"x_min":24,"x_max":256,"o":"m 133 57 l 144 57 q 171 72 160 57 q 182 119 182 88 l 182 286 l 256 286 l 256 119 q 225 28 256 60 q 150 -4 194 -4 l 125 -4 q 54 28 85 -4 q 24 119 24 60 l 24 568 q 54 659 24 626 q 129 692 85 692 l 150 692 q 225 660 194 692 q 256 568 256 628 l 256 328 l 97 328 l 97 119 q 108 72 97 88 q 133 57 119 57 m 182 379 l 182 567 q 171 614 182 599 q 144 629 160 629 l 136 629 q 109 614 121 629 q 97 567 97 599 l 97 379 l 182 379 m 113 743 l 171 863 l 242 863 l 163 743 l 113 743 z "},"è":{"ha":276,"x_min":24,"x_max":256,"o":"m 133 57 l 144 57 q 171 72 160 57 q 182 119 182 88 l 182 286 l 256 286 l 256 119 q 225 28 256 60 q 150 -4 194 -4 l 125 -4 q 54 28 85 -4 q 24 119 24 60 l 24 568 q 54 659 24 626 q 129 692 85 692 l 150 692 q 225 660 194 692 q 256 568 256 628 l 256 328 l 97 328 l 97 119 q 108 72 97 88 q 133 57 119 57 m 182 379 l 182 567 q 171 614 182 599 q 144 629 160 629 l 136 629 q 109 614 121 629 q 97 567 97 599 l 97 379 l 182 379 m 115 743 l 36 863 l 106 863 l 164 743 l 115 743 z "},"ë":{"ha":276,"x_min":24,"x_max":256,"o":"m 133 57 l 144 57 q 171 72 160 57 q 182 119 182 88 l 182 286 l 256 286 l 256 119 q 225 28 256 60 q 150 -4 194 -4 l 125 -4 q 54 28 85 -4 q 24 119 24 60 l 24 568 q 54 659 24 626 q 129 692 85 692 l 150 692 q 225 660 194 692 q 256 568 256 628 l 256 328 l 97 328 l 97 119 q 108 72 97 88 q 133 57 119 57 m 182 379 l 182 567 q 171 614 182 599 q 144 629 160 629 l 136 629 q 109 614 121 629 q 97 567 97 599 l 97 379 l 182 379 m 115 760 l 63 760 l 63 851 l 115 851 l 115 760 m 214 760 l 161 760 l 161 851 l 214 851 l 214 760 z "},"ñ":{"ha":282,"x_min":25,"x_max":288,"o":"m 147 629 q 174 614 163 629 q 186 567 186 599 l 186 0 l 260 0 l 260 568 q 240 659 260 626 q 176 692 221 692 l 172 692 q 134 680 153 692 q 99 649 115 668 l 99 688 l 25 688 l 25 0 l 99 0 l 99 564 q 115 611 100 593 q 144 629 129 629 l 147 629 m 65 800 q 125 842 88 842 q 169 828 149 842 q 214 814 190 814 q 251 833 233 814 l 288 810 q 258 777 274 786 q 225 768 243 768 q 179 782 200 768 q 139 796 158 796 q 118 792 128 796 q 97 776 108 788 l 65 800 z "},"õ":{"ha":276,"x_min":24,"x_max":256,"o":"m 129 -4 q 54 28 85 -4 q 24 118 24 60 l 24 568 q 54 659 24 626 q 129 692 85 692 l 150 692 q 225 659 194 692 q 256 568 256 626 l 256 118 q 225 28 256 60 q 150 -4 194 -4 l 129 -4 m 136 629 q 109 614 121 629 q 97 567 97 599 l 97 119 q 109 72 97 88 q 136 57 121 57 l 144 57 q 171 72 160 57 q 182 119 182 88 l 182 567 q 171 614 182 599 q 144 629 160 629 l 136 629 m 31 800 q 90 842 53 842 q 135 828 114 842 q 179 814 156 814 q 217 833 199 814 l 253 810 q 224 777 239 786 q 190 768 208 768 q 144 782 165 768 q 104 796 124 796 q 83 792 93 796 q 63 776 74 788 l 31 800 z "},"ô":{"ha":276,"x_min":24,"x_max":256,"o":"m 129 -4 q 54 28 85 -4 q 24 118 24 60 l 24 568 q 54 659 24 626 q 129 692 85 692 l 150 692 q 225 659 194 692 q 256 568 256 626 l 256 118 q 225 28 256 60 q 150 -4 194 -4 l 129 -4 m 136 629 q 109 614 121 629 q 97 567 97 599 l 97 119 q 109 72 97 88 q 136 57 121 57 l 144 57 q 171 72 160 57 q 182 119 182 88 l 182 567 q 171 614 182 599 q 144 629 160 629 l 136 629 m 176 863 l 256 743 l 186 743 l 140 825 l 96 743 l 25 743 l 104 863 l 176 863 z "},"ó":{"ha":276,"x_min":24,"x_max":256,"o":"m 129 -4 q 54 28 85 -4 q 24 118 24 60 l 24 568 q 54 659 24 626 q 129 692 85 692 l 150 692 q 225 659 194 692 q 256 568 256 626 l 256 118 q 225 28 256 60 q 150 -4 194 -4 l 129 -4 m 136 629 q 109 614 121 629 q 97 567 97 599 l 97 119 q 109 72 97 88 q 136 57 121 57 l 144 57 q 171 72 160 57 q 182 119 182 88 l 182 567 q 171 614 182 599 q 144 629 160 629 l 136 629 m 114 743 l 172 863 l 243 863 l 164 743 l 114 743 z "},"ò":{"ha":276,"x_min":24,"x_max":256,"o":"m 129 -4 q 54 28 85 -4 q 24 118 24 60 l 24 568 q 54 659 24 626 q 129 692 85 692 l 150 692 q 225 659 194 692 q 256 568 256 626 l 256 118 q 225 28 256 60 q 150 -4 194 -4 l 129 -4 m 136 629 q 109 614 121 629 q 97 567 97 599 l 97 119 q 109 72 97 88 q 136 57 121 57 l 144 57 q 171 72 160 57 q 182 119 182 88 l 182 567 q 171 614 182 599 q 144 629 160 629 l 136 629 m 117 743 l 38 863 l 107 863 l 165 743 l 117 743 z "},"ö":{"ha":276,"x_min":24,"x_max":256,"o":"m 129 -4 q 54 28 85 -4 q 24 118 24 60 l 24 568 q 54 659 24 626 q 129 692 85 692 l 150 692 q 225 659 194 692 q 256 568 256 626 l 256 118 q 225 28 256 60 q 150 -4 194 -4 l 129 -4 m 136 629 q 109 614 121 629 q 97 567 97 599 l 97 119 q 109 72 97 88 q 136 57 121 57 l 144 57 q 171 72 160 57 q 182 119 182 88 l 182 567 q 171 614 182 599 q 144 629 160 629 l 136 629 m 117 761 l 64 761 l 64 853 l 117 853 l 117 761 m 215 761 l 163 761 l 163 853 l 215 853 l 215 761 z "},"û":{"ha":281,"x_min":22,"x_max":257,"o":"m 138 57 q 168 77 153 57 q 183 129 183 97 l 183 688 l 257 688 l 257 0 l 183 0 l 183 39 q 147 8 165 19 q 108 -4 128 -4 l 104 -4 q 41 28 60 -4 q 22 118 22 60 l 22 688 l 96 688 l 96 119 q 107 72 96 88 q 133 57 118 57 l 138 57 m 176 861 l 256 742 l 185 742 l 139 824 l 94 742 l 25 742 l 104 861 l 176 861 z "},"ú":{"ha":281,"x_min":22,"x_max":257,"o":"m 138 57 q 168 77 153 57 q 183 129 183 97 l 183 688 l 257 688 l 257 0 l 183 0 l 183 39 q 147 8 165 19 q 108 -4 128 -4 l 104 -4 q 41 28 60 -4 q 22 118 22 60 l 22 688 l 96 688 l 96 119 q 107 72 96 88 q 133 57 118 57 l 138 57 m 114 742 l 172 861 l 242 861 l 163 742 l 114 742 z "},"ù":{"ha":281,"x_min":22,"x_max":257,"o":"m 133 57 q 107 72 118 57 q 96 119 96 88 l 96 688 l 22 688 l 22 118 q 41 28 22 60 q 104 -4 60 -4 l 108 -4 q 147 8 128 -4 q 183 39 165 19 l 183 0 l 257 0 l 257 688 l 183 688 l 183 122 q 167 75 181 93 q 138 57 153 57 l 133 57 m 115 742 l 36 861 l 107 861 l 165 742 l 115 742 z "},"ü":{"ha":281,"x_min":22,"x_max":257,"o":"m 133 57 q 107 72 118 57 q 96 119 96 88 l 96 688 l 22 688 l 22 118 q 41 28 22 60 q 104 -4 60 -4 l 108 -4 q 147 8 128 -4 q 183 39 165 19 l 183 0 l 257 0 l 257 688 l 183 688 l 183 129 q 168 77 183 97 q 138 57 153 57 l 133 57 m 215 758 l 163 758 l 163 850 l 215 850 l 215 758 m 117 758 l 64 758 l 64 850 l 117 850 l 117 758 z "},"î":{"ha":125,"x_min":-50,"x_max":181,"o":"m 101 688 l 101 0 l 28 0 l 28 688 l 101 688 m 101 861 l 181 742 l 110 742 l 64 824 l 19 742 l -50 742 l 29 861 l 101 861 z "},"ì":{"ha":125,"x_min":-39,"x_max":101,"o":"m 28 688 l 28 0 l 101 0 l 101 688 l 28 688 m 40 742 l -39 861 l 32 861 l 90 742 l 40 742 z "},"ï":{"ha":125,"x_min":-11,"x_max":140,"o":"m 28 688 l 28 0 l 101 0 l 101 688 l 28 688 m 42 758 l -11 758 l -11 850 l 42 850 l 42 758 m 140 758 l 88 758 l 88 850 l 140 850 l 140 758 z "},"ý":{"ha":249,"x_min":3,"x_max":246,"o":"m 185 688 l 246 688 l 147 -229 l 75 -229 l 103 0 l 3 688 l 69 688 l 128 207 l 131 207 l 185 688 m 99 743 l 157 863 l 228 863 l 149 743 l 99 743 z "},"ÿ":{"ha":249,"x_min":3,"x_max":246,"o":"m 131 207 l 128 207 l 69 688 l 3 688 l 103 0 l 75 -229 l 147 -229 l 246 688 l 185 688 l 131 207 m 100 761 l 47 761 l 47 854 l 100 854 l 100 761 m 199 761 l 146 761 l 146 854 l 199 854 l 199 761 z "},"Ă":{"ha":296,"x_min":4,"x_max":292,"o":"m 215 0 l 292 0 l 197 971 l 96 971 l 4 0 l 72 0 l 97 269 l 190 269 l 215 0 m 143 747 l 146 747 l 185 329 l 103 329 l 143 747 m 106 1132 q 118 1102 106 1115 q 147 1089 131 1089 q 178 1102 165 1089 q 190 1132 190 1115 l 238 1132 q 211 1069 238 1096 q 147 1043 185 1043 q 86 1069 113 1043 q 60 1132 60 1096 l 106 1132 z "},"Ā":{"ha":296,"x_min":4,"x_max":292,"o":"m 190 269 l 97 269 l 72 0 l 4 0 l 96 971 l 197 971 l 292 0 l 215 0 l 190 269 m 103 329 l 185 329 l 146 747 l 143 747 l 103 329 m 233 1060 l 58 1060 l 58 1115 l 233 1115 l 233 1060 z "},"Ą":{"ha":296,"x_min":4,"x_max":325,"o":"m 325 -89 q 292 -123 314 -112 q 247 -131 269 -133 q 208 -113 225 -129 q 192 -69 192 -97 q 231 0 192 -31 l 215 0 l 190 269 l 97 269 l 72 0 l 4 0 l 96 971 l 197 971 l 292 0 l 289 0 q 250 -27 265 -8 q 236 -61 235 -46 q 243 -83 236 -75 q 260 -92 250 -90 q 281 -87 269 -93 q 299 -71 292 -82 l 325 -89 m 103 329 l 185 329 l 146 747 l 143 747 l 103 329 z "},"ă":{"ha":276,"x_min":24,"x_max":256,"o":"m 101 -4 q 40 28 57 -4 q 24 118 24 60 l 24 261 q 42 352 24 319 q 106 385 61 385 l 110 385 q 146 376 128 385 q 182 354 164 368 l 182 567 q 170 614 182 599 q 143 629 158 629 l 135 629 q 108 614 119 629 q 97 567 97 599 l 97 404 l 24 404 l 24 568 q 54 660 24 628 q 129 692 85 692 l 150 692 q 225 659 194 692 q 256 568 256 626 l 256 0 l 182 0 l 182 28 q 143 4 163 13 q 106 -4 124 -4 l 101 -4 m 135 329 q 108 314 119 329 q 97 267 97 299 l 97 113 q 108 65 97 81 q 135 50 119 50 l 139 50 q 167 63 154 50 q 182 106 179 76 l 182 293 q 167 321 179 313 q 143 329 154 329 l 135 329 m 99 850 q 111 820 99 833 q 140 807 124 807 q 171 820 158 807 q 183 850 183 833 l 231 850 q 204 788 231 814 q 140 761 178 761 q 79 788 106 761 q 53 850 53 814 l 99 850 z "},"ā":{"ha":276,"x_min":24,"x_max":256,"o":"m 101 -4 q 40 28 57 -4 q 24 118 24 60 l 24 261 q 42 352 24 319 q 106 385 61 385 l 110 385 q 146 376 128 385 q 182 354 164 368 l 182 567 q 170 614 182 599 q 143 629 158 629 l 135 629 q 108 614 119 629 q 97 567 97 599 l 97 404 l 24 404 l 24 568 q 54 660 24 628 q 129 692 85 692 l 150 692 q 225 659 194 692 q 256 568 256 626 l 256 0 l 182 0 l 182 28 q 143 4 163 13 q 106 -4 124 -4 l 101 -4 m 135 329 q 108 314 119 329 q 97 267 97 299 l 97 113 q 108 65 97 81 q 135 50 119 50 l 139 50 q 167 63 154 50 q 182 106 179 76 l 182 293 q 167 321 179 313 q 143 329 154 329 l 135 329 m 226 778 l 51 778 l 51 833 l 226 833 l 226 778 z "},"ą":{"ha":276,"x_min":24,"x_max":292,"o":"m 101 -4 q 40 28 57 -4 q 24 118 24 60 l 24 261 q 42 352 24 319 q 106 385 61 385 l 110 385 q 146 376 128 385 q 182 354 164 368 l 182 567 q 170 614 182 599 q 143 629 158 629 l 135 629 q 108 614 119 629 q 97 567 97 599 l 97 404 l 24 404 l 24 568 q 54 660 24 628 q 129 692 85 692 l 150 692 q 225 659 194 692 q 256 568 256 626 l 256 0 l 182 0 l 182 28 q 143 4 163 13 q 106 -4 124 -4 l 101 -4 m 135 329 q 108 314 119 329 q 97 267 97 299 l 97 113 q 108 65 97 81 q 135 50 119 50 l 139 50 q 168 65 154 50 q 182 113 182 81 l 182 289 q 169 321 182 313 q 143 329 156 329 l 135 329 m 265 -71 q 247 -87 258 -82 q 226 -92 236 -93 q 210 -83 217 -90 q 203 -61 203 -75 q 217 -27 201 -46 q 256 0 232 -8 l 197 0 q 158 -69 158 -31 q 175 -113 158 -97 q 214 -131 192 -129 q 258 -123 236 -133 q 292 -89 281 -112 l 265 -71 z "},"Ĉ":{"ha":306,"x_min":25,"x_max":281,"o":"m 142 -8 q 100 -1 121 -8 q 63 22 79 7 q 35 63 46 38 q 25 122 25 88 l 25 847 q 35 907 25 882 q 63 948 46 932 q 100 972 79 964 q 142 979 121 979 l 164 979 q 206 972 185 979 q 243 948 226 964 q 270 907 260 932 q 281 847 281 882 l 281 579 l 201 579 l 201 836 q 188 895 201 878 q 157 913 175 913 l 149 913 q 117 895 131 913 q 104 836 104 878 l 104 135 q 117 76 104 93 q 149 58 131 58 l 157 58 q 188 76 175 58 q 201 135 201 93 l 201 393 l 281 393 l 281 122 q 270 63 281 88 q 243 22 260 38 q 206 -1 226 7 q 164 -8 185 -8 l 142 -8 m 189 1149 l 268 1029 l 199 1029 l 153 1111 l 108 1029 l 38 1029 l 117 1149 l 189 1149 z "},"Ć":{"ha":306,"x_min":25,"x_max":281,"o":"m 142 -8 q 100 -1 121 -8 q 63 22 79 7 q 35 63 46 38 q 25 122 25 88 l 25 847 q 35 907 25 882 q 63 948 46 932 q 100 972 79 964 q 142 979 121 979 l 164 979 q 206 972 185 979 q 243 948 226 964 q 270 907 260 932 q 281 847 281 882 l 281 579 l 201 579 l 201 836 q 188 895 201 878 q 157 913 175 913 l 149 913 q 117 895 131 913 q 104 836 104 878 l 104 135 q 117 76 104 93 q 149 58 131 58 l 157 58 q 188 76 175 58 q 201 135 201 93 l 201 393 l 281 393 l 281 122 q 270 63 281 88 q 243 22 260 38 q 206 -1 226 7 q 164 -8 185 -8 l 142 -8 m 126 1029 l 185 1149 l 256 1149 l 176 1029 l 126 1029 z "},"Č":{"ha":306,"x_min":25,"x_max":281,"o":"m 142 -8 q 100 -1 121 -8 q 63 22 79 7 q 35 63 46 38 q 25 122 25 88 l 25 847 q 35 907 25 882 q 63 948 46 932 q 100 972 79 964 q 142 979 121 979 l 164 979 q 206 972 185 979 q 243 948 226 964 q 270 907 260 932 q 281 847 281 882 l 281 579 l 201 579 l 201 836 q 188 895 201 878 q 157 913 175 913 l 149 913 q 117 895 131 913 q 104 836 104 878 l 104 135 q 117 76 104 93 q 149 58 131 58 l 157 58 q 188 76 175 58 q 201 135 201 93 l 201 393 l 281 393 l 281 122 q 270 63 281 88 q 243 22 260 38 q 206 -1 226 7 q 164 -8 185 -8 l 142 -8 m 115 1032 l 36 1151 l 107 1151 l 151 1068 l 197 1151 l 267 1151 l 188 1032 l 115 1032 z "},"Ċ":{"ha":306,"x_min":25,"x_max":281,"o":"m 142 -8 q 100 -1 121 -8 q 63 22 79 7 q 35 63 46 38 q 25 122 25 88 l 25 847 q 35 907 25 882 q 63 948 46 932 q 100 972 79 964 q 142 979 121 979 l 164 979 q 206 972 185 979 q 243 948 226 964 q 270 907 260 932 q 281 847 281 882 l 281 579 l 201 579 l 201 836 q 188 895 201 878 q 157 913 175 913 l 149 913 q 117 895 131 913 q 104 836 104 878 l 104 135 q 117 76 104 93 q 149 58 131 58 l 157 58 q 188 76 175 58 q 201 135 201 93 l 201 393 l 281 393 l 281 122 q 270 63 281 88 q 243 22 260 38 q 206 -1 226 7 q 164 -8 185 -8 l 142 -8 m 178 1046 l 125 1046 l 125 1139 l 178 1139 l 178 1046 z "},"ĉ":{"ha":276,"x_min":24,"x_max":256,"o":"m 182 404 l 182 567 q 171 614 182 599 q 144 629 160 629 l 136 629 q 109 614 121 629 q 97 567 97 599 l 97 119 q 108 72 97 88 q 133 57 119 57 l 144 57 q 171 72 160 57 q 182 119 182 88 l 182 286 l 256 286 l 256 119 q 225 28 256 60 q 150 -4 194 -4 l 125 -4 q 54 28 85 -4 q 24 119 24 60 l 24 568 q 54 659 24 626 q 129 692 85 692 l 150 692 q 225 660 194 692 q 256 568 256 628 l 256 404 l 182 404 m 176 863 l 256 743 l 185 743 l 139 825 l 94 743 l 25 743 l 104 863 l 176 863 z "},"ć":{"ha":276,"x_min":24,"x_max":256,"o":"m 182 404 l 182 567 q 171 614 182 599 q 144 629 160 629 l 136 629 q 109 614 121 629 q 97 567 97 599 l 97 119 q 108 72 97 88 q 133 57 119 57 l 144 57 q 171 72 160 57 q 182 119 182 88 l 182 286 l 256 286 l 256 119 q 225 28 256 60 q 150 -4 194 -4 l 125 -4 q 54 28 85 -4 q 24 119 24 60 l 24 568 q 54 659 24 626 q 129 692 85 692 l 150 692 q 225 660 194 692 q 256 568 256 628 l 256 404 l 182 404 m 114 743 l 172 863 l 242 863 l 163 743 l 114 743 z "},"č":{"ha":276,"x_min":24,"x_max":256,"o":"m 182 404 l 182 567 q 171 614 182 599 q 144 629 160 629 l 136 629 q 109 614 121 629 q 97 567 97 599 l 97 119 q 108 72 97 88 q 133 57 119 57 l 144 57 q 171 72 160 57 q 182 119 182 88 l 182 286 l 256 286 l 256 119 q 225 28 256 60 q 150 -4 194 -4 l 125 -4 q 54 28 85 -4 q 24 119 24 60 l 24 568 q 54 659 24 626 q 129 692 85 692 l 150 692 q 225 660 194 692 q 256 568 256 628 l 256 404 l 182 404 m 103 746 l 24 865 l 93 865 l 138 782 l 183 865 l 254 865 l 175 746 l 103 746 z "},"ċ":{"ha":276,"x_min":24,"x_max":256,"o":"m 182 404 l 182 567 q 171 614 182 599 q 144 629 160 629 l 136 629 q 109 614 121 629 q 97 567 97 599 l 97 119 q 108 72 97 88 q 133 57 119 57 l 144 57 q 171 72 160 57 q 182 119 182 88 l 182 286 l 256 286 l 256 119 q 225 28 256 60 q 150 -4 194 -4 l 125 -4 q 54 28 85 -4 q 24 119 24 60 l 24 568 q 54 659 24 626 q 129 692 85 692 l 150 692 q 225 660 194 692 q 256 568 256 628 l 256 404 l 182 404 m 164 760 l 111 760 l 111 853 l 164 853 l 164 760 z "},"Ď":{"ha":308,"x_min":28,"x_max":283,"o":"m 28 0 l 28 971 l 167 971 q 208 964 188 971 q 246 942 229 957 q 273 902 263 926 q 283 843 283 878 l 283 126 q 273 67 283 92 q 246 28 263 43 q 208 7 229 14 q 167 0 188 0 l 28 0 m 107 904 l 107 67 l 160 67 q 191 82 178 67 q 204 139 204 97 l 204 832 q 191 888 204 872 q 160 904 178 904 l 107 904 m 118 1028 l 39 1147 l 110 1147 l 154 1064 l 200 1147 l 269 1147 l 190 1028 l 118 1028 z "},"ď":{"ha":382,"x_min":24,"x_max":388,"o":"m 108 -4 q 44 28 64 -4 q 24 118 24 60 l 24 568 q 42 659 24 626 q 106 692 61 692 l 110 692 q 147 681 128 692 q 182 650 165 669 l 182 971 l 256 971 l 256 0 l 196 0 l 188 42 q 151 8 171 21 q 113 -4 132 -4 l 108 -4 m 136 629 q 109 614 121 629 q 97 567 97 599 l 97 119 q 108 72 97 88 q 135 57 119 57 l 139 57 q 168 76 154 57 q 182 126 182 94 l 182 565 q 167 613 179 596 q 139 629 154 629 l 136 629 m 388 850 l 357 768 l 322 768 l 343 850 l 307 850 l 307 971 l 388 971 l 388 850 z "},"Ĕ":{"ha":253,"x_min":28,"x_max":239,"o":"m 233 904 l 233 971 l 28 971 l 28 0 l 239 0 l 239 67 l 107 67 l 107 456 l 204 456 l 204 515 l 107 515 l 107 904 l 233 904 m 92 1132 q 104 1102 92 1115 q 133 1089 117 1089 q 164 1102 151 1089 q 176 1132 176 1115 l 224 1132 q 197 1069 224 1096 q 133 1043 171 1043 q 72 1069 99 1043 q 46 1132 46 1096 l 92 1132 z "},"Ė":{"ha":253,"x_min":28,"x_max":239,"o":"m 233 904 l 233 971 l 28 971 l 28 0 l 239 0 l 239 67 l 107 67 l 107 456 l 204 456 l 204 515 l 107 515 l 107 904 l 233 904 m 158 1042 l 106 1042 l 106 1135 l 158 1135 l 158 1042 z "},"Ē":{"ha":253,"x_min":28,"x_max":239,"o":"m 107 904 l 107 515 l 204 515 l 204 456 l 107 456 l 107 67 l 239 67 l 239 0 l 28 0 l 28 971 l 233 971 l 233 904 l 107 904 m 219 1060 l 44 1060 l 44 1115 l 219 1115 l 219 1060 z "},"Ę":{"ha":253,"x_min":28,"x_max":239,"o":"m 206 -89 q 172 -123 194 -112 q 128 -131 150 -133 q 89 -113 106 -129 q 72 -69 72 -97 q 111 0 72 -31 l 28 0 l 28 971 l 233 971 l 233 904 l 107 904 l 107 515 l 204 515 l 204 456 l 107 456 l 107 67 l 239 67 l 239 0 l 169 0 q 131 -27 146 -8 q 117 -61 115 -46 q 124 -83 117 -75 q 140 -92 131 -90 q 161 -87 150 -93 q 179 -71 172 -82 l 206 -89 z "},"ę":{"ha":276,"x_min":24,"x_max":256,"o":"m 211 -93 q 177 -127 200 -117 q 132 -135 154 -137 q 93 -117 110 -133 q 76 -74 76 -101 q 87 -35 76 -53 q 115 -4 97 -18 q 51 31 78 -1 q 24 119 24 63 l 24 568 q 54 659 24 626 q 129 692 85 692 l 150 692 q 225 660 194 692 q 256 568 256 628 l 256 328 l 97 328 l 97 119 q 108 72 97 88 q 133 57 119 57 l 144 57 q 171 72 160 57 q 182 119 182 88 l 182 286 l 256 286 l 256 119 q 231 36 256 67 q 169 -1 206 6 q 134 -33 147 -15 q 121 -65 121 -50 q 145 -96 122 -93 q 183 -75 168 -99 l 211 -93 m 182 379 l 182 567 q 171 614 182 599 q 144 629 160 629 l 136 629 q 109 614 121 629 q 97 567 97 599 l 97 379 l 182 379 z "},"ě":{"ha":276,"x_min":22,"x_max":256,"o":"m 133 57 l 144 57 q 171 72 160 57 q 182 119 182 88 l 182 286 l 256 286 l 256 119 q 225 28 256 60 q 150 -4 194 -4 l 125 -4 q 54 28 85 -4 q 24 119 24 60 l 24 568 q 54 659 24 626 q 129 692 85 692 l 150 692 q 225 660 194 692 q 256 568 256 628 l 256 328 l 97 328 l 97 119 q 108 72 97 88 q 133 57 119 57 m 182 379 l 182 567 q 171 614 182 599 q 144 629 160 629 l 136 629 q 109 614 121 629 q 97 567 97 599 l 97 379 l 182 379 m 101 746 l 22 865 l 93 865 l 138 782 l 183 865 l 253 865 l 174 746 l 101 746 z "},"ĕ":{"ha":276,"x_min":24,"x_max":256,"o":"m 133 57 l 144 57 q 171 72 160 57 q 182 119 182 88 l 182 286 l 256 286 l 256 119 q 225 28 256 60 q 150 -4 194 -4 l 125 -4 q 54 28 85 -4 q 24 119 24 60 l 24 568 q 54 659 24 626 q 129 692 85 692 l 150 692 q 225 660 194 692 q 256 568 256 628 l 256 328 l 97 328 l 97 119 q 108 72 97 88 q 133 57 119 57 m 182 379 l 182 567 q 171 614 182 599 q 144 629 160 629 l 136 629 q 109 614 121 629 q 97 567 97 599 l 97 379 l 182 379 m 97 850 q 110 820 97 833 q 139 807 122 807 q 169 820 157 807 q 182 850 182 833 l 229 850 q 203 788 229 814 q 139 761 176 761 q 78 788 104 761 q 51 850 51 814 l 97 850 z "},"ė":{"ha":276,"x_min":24,"x_max":256,"o":"m 133 57 l 144 57 q 171 72 160 57 q 182 119 182 88 l 182 286 l 256 286 l 256 119 q 225 28 256 60 q 150 -4 194 -4 l 125 -4 q 54 28 85 -4 q 24 119 24 60 l 24 568 q 54 659 24 626 q 129 692 85 692 l 150 692 q 225 660 194 692 q 256 568 256 628 l 256 328 l 97 328 l 97 119 q 108 72 97 88 q 133 57 119 57 m 182 379 l 182 567 q 171 614 182 599 q 144 629 160 629 l 136 629 q 109 614 121 629 q 97 567 97 599 l 97 379 l 182 379 m 164 760 l 111 760 l 111 853 l 164 853 l 164 760 z "},"ē":{"ha":276,"x_min":24,"x_max":256,"o":"m 133 57 l 144 57 q 171 72 160 57 q 182 119 182 88 l 182 286 l 256 286 l 256 119 q 225 28 256 60 q 150 -4 194 -4 l 125 -4 q 54 28 85 -4 q 24 119 24 60 l 24 568 q 54 659 24 626 q 129 692 85 692 l 150 692 q 225 660 194 692 q 256 568 256 628 l 256 328 l 97 328 l 97 119 q 108 72 97 88 q 133 57 119 57 m 182 379 l 182 567 q 171 614 182 599 q 144 629 160 629 l 136 629 q 109 614 121 629 q 97 567 97 599 l 97 379 l 182 379 m 225 778 l 50 778 l 50 833 l 225 833 l 225 778 z "},"Ě":{"ha":253,"x_min":17,"x_max":247,"o":"m 233 904 l 233 971 l 28 971 l 28 0 l 239 0 l 239 67 l 107 67 l 107 456 l 204 456 l 204 515 l 107 515 l 107 904 l 233 904 m 96 1028 l 17 1147 l 88 1147 l 132 1064 l 178 1147 l 247 1147 l 168 1028 l 96 1028 z "},"Ĝ":{"ha":306,"x_min":25,"x_max":281,"o":"m 142 -8 q 100 -1 121 -8 q 63 22 79 7 q 35 63 46 38 q 25 122 25 88 l 25 847 q 35 907 25 882 q 63 948 46 932 q 100 972 79 964 q 142 979 121 979 l 164 979 q 206 972 185 979 q 243 948 226 964 q 270 907 260 932 q 281 847 281 882 l 281 579 l 201 579 l 201 836 q 188 895 201 878 q 157 913 175 913 l 149 913 q 117 895 131 913 q 104 836 104 878 l 104 135 q 117 76 104 93 q 149 58 131 58 l 157 58 q 188 76 175 58 q 201 135 201 93 l 201 326 l 154 326 l 154 393 l 281 393 l 281 150 l 281 143 l 281 0 l 242 0 l 232 33 q 151 -8 190 -8 l 142 -8 m 189 1144 l 268 1025 l 199 1025 l 153 1107 l 108 1025 l 38 1025 l 117 1144 l 189 1144 z "},"Ğ":{"ha":306,"x_min":25,"x_max":281,"o":"m 142 -8 q 100 -1 121 -8 q 63 22 79 7 q 35 63 46 38 q 25 122 25 88 l 25 847 q 35 907 25 882 q 63 948 46 932 q 100 972 79 964 q 142 979 121 979 l 164 979 q 206 972 185 979 q 243 948 226 964 q 270 907 260 932 q 281 847 281 882 l 281 579 l 201 579 l 201 836 q 188 895 201 878 q 157 913 175 913 l 149 913 q 117 895 131 913 q 104 836 104 878 l 104 135 q 117 76 104 93 q 149 58 131 58 l 157 58 q 188 76 175 58 q 201 135 201 93 l 201 326 l 154 326 l 154 393 l 281 393 l 281 0 l 242 0 l 232 33 q 151 -8 190 -8 l 142 -8 m 111 1132 q 124 1102 111 1115 q 153 1089 136 1089 q 183 1102 171 1089 q 196 1132 196 1115 l 243 1132 q 217 1069 243 1096 q 153 1043 190 1043 q 92 1069 118 1043 q 65 1132 65 1096 l 111 1132 z "},"Ġ":{"ha":306,"x_min":25,"x_max":281,"o":"m 154 393 l 281 393 l 281 0 l 242 0 l 232 33 q 151 -8 190 -8 l 142 -8 q 100 -1 121 -8 q 63 22 79 7 q 35 63 46 38 q 25 122 25 88 l 25 847 q 35 907 25 882 q 63 948 46 932 q 100 972 79 964 q 142 979 121 979 l 164 979 q 206 972 185 979 q 243 948 226 964 q 270 907 260 932 q 281 847 281 882 l 281 579 l 201 579 l 201 836 q 188 895 201 878 q 157 913 175 913 l 149 913 q 117 895 131 913 q 104 836 104 878 l 104 135 q 117 76 104 93 q 149 58 131 58 l 157 58 q 188 76 175 58 q 201 135 201 93 l 201 326 l 154 326 l 154 393 m 178 1042 l 125 1042 l 125 1135 l 178 1135 l 178 1042 z "},"Ģ":{"ha":306,"x_min":25,"x_max":281,"o":"m 142 -8 q 100 -1 121 -8 q 63 22 79 7 q 35 63 46 38 q 25 122 25 88 l 25 847 q 35 907 25 882 q 63 948 46 932 q 100 972 79 964 q 142 979 121 979 l 164 979 q 206 972 185 979 q 243 948 226 964 q 270 907 260 932 q 281 847 281 882 l 281 579 l 201 579 l 201 836 q 188 895 201 878 q 157 913 175 913 l 149 913 q 117 895 131 913 q 104 836 104 878 l 104 135 q 117 76 104 93 q 149 58 131 58 l 157 58 q 188 76 175 58 q 201 135 201 93 l 201 326 l 154 326 l 154 393 l 281 393 l 281 150 l 281 143 l 281 0 l 242 0 l 232 33 q 151 -8 190 -8 l 142 -8 m 188 -162 l 156 -244 l 122 -244 l 143 -162 l 107 -162 l 107 -42 l 188 -42 l 188 -162 z "},"ĝ":{"ha":279,"x_min":22,"x_max":256,"o":"m 256 688 l 256 -106 q 225 -197 256 -165 q 154 -229 194 -229 l 129 -229 q 54 -197 85 -229 q 24 -106 24 -165 l 24 -40 l 97 -40 l 97 -106 q 108 -153 97 -137 q 135 -168 119 -168 l 146 -168 q 171 -153 160 -168 q 182 -106 182 -137 l 182 35 q 146 6 164 17 q 110 -4 128 -4 l 106 -4 q 42 28 61 -4 q 24 118 24 60 l 24 568 q 44 659 24 626 q 108 692 64 692 l 113 692 q 147 681 129 692 q 182 654 165 671 l 196 688 l 256 688 m 139 57 q 167 74 154 57 q 182 119 179 92 l 182 560 q 168 610 182 592 q 139 629 154 629 l 135 629 q 108 614 119 629 q 97 567 97 599 l 97 119 q 108 72 97 88 q 135 57 119 57 l 139 57 m 174 863 l 253 743 l 183 743 l 138 825 l 93 743 l 22 743 l 101 863 l 174 863 z "},"ğ":{"ha":279,"x_min":24,"x_max":256,"o":"m 196 688 l 182 654 q 147 681 165 671 q 113 692 129 692 l 108 692 q 44 659 64 692 q 24 568 24 626 l 24 118 q 42 28 24 60 q 106 -4 61 -4 l 110 -4 q 146 6 128 -4 q 182 35 164 17 l 182 -106 q 171 -153 182 -137 q 146 -168 160 -168 l 135 -168 q 108 -153 119 -168 q 97 -106 97 -137 l 97 -40 l 24 -40 l 24 -106 q 54 -197 24 -165 q 129 -229 85 -229 l 154 -229 q 225 -197 194 -229 q 256 -106 256 -165 l 256 688 l 196 688 m 135 57 q 108 72 119 57 q 97 119 97 88 l 97 567 q 108 614 97 599 q 135 629 119 629 l 139 629 q 168 610 154 629 q 182 560 182 592 l 182 119 q 167 74 179 92 q 139 57 154 57 l 135 57 m 96 850 q 108 820 96 833 q 138 807 121 807 q 168 820 156 807 q 181 850 181 833 l 228 850 q 201 788 228 814 q 138 761 175 761 q 76 788 103 761 q 50 850 50 814 l 96 850 z "},"ġ":{"ha":279,"x_min":24,"x_max":256,"o":"m 196 688 l 182 654 q 147 681 165 671 q 113 692 129 692 l 108 692 q 44 659 64 692 q 24 568 24 626 l 24 118 q 42 28 24 60 q 106 -4 61 -4 l 110 -4 q 146 6 128 -4 q 182 35 164 17 l 182 -106 q 171 -153 182 -137 q 146 -168 160 -168 l 135 -168 q 108 -153 119 -168 q 97 -106 97 -137 l 97 -40 l 24 -40 l 24 -106 q 54 -197 24 -165 q 129 -229 85 -229 l 154 -229 q 225 -197 194 -229 q 256 -106 256 -165 l 256 688 l 196 688 m 135 57 q 108 72 119 57 q 97 119 97 88 l 97 567 q 108 614 97 599 q 135 629 119 629 l 139 629 q 167 613 154 629 q 182 565 179 596 l 182 126 q 168 76 182 94 q 139 57 154 57 l 135 57 m 163 760 l 110 760 l 110 853 l 163 853 l 163 760 z "},"ģ":{"ha":279,"x_min":24,"x_max":256,"o":"m 196 688 l 182 654 q 147 681 165 671 q 113 692 129 692 l 108 692 q 44 659 64 692 q 24 568 24 626 l 24 118 q 42 28 24 60 q 106 -4 61 -4 l 110 -4 q 146 6 128 -4 q 182 35 164 17 l 182 -106 q 171 -153 182 -137 q 146 -168 160 -168 l 135 -168 q 108 -153 119 -168 q 97 -106 97 -137 l 97 -40 l 24 -40 l 24 -106 q 54 -197 24 -165 q 129 -229 85 -229 l 154 -229 q 225 -197 194 -229 q 256 -106 256 -165 l 256 688 l 196 688 m 135 57 q 108 72 119 57 q 97 119 97 88 l 97 567 q 108 614 97 599 q 135 629 119 629 l 139 629 q 167 613 154 629 q 182 565 179 596 l 182 119 q 167 74 179 92 q 139 57 154 57 l 135 57 m 107 833 l 131 896 l 161 896 l 146 833 l 164 833 l 164 743 l 107 743 l 107 833 z "},"Ĥ":{"ha":306,"x_min":28,"x_max":278,"o":"m 278 971 l 278 0 l 199 0 l 199 456 l 107 456 l 107 0 l 28 0 l 28 971 l 107 971 l 107 514 l 199 514 l 199 971 l 278 971 m 189 1144 l 268 1025 l 199 1025 l 153 1107 l 108 1025 l 38 1025 l 117 1144 l 189 1144 z "},"ĥ":{"ha":283,"x_min":-51,"x_max":261,"o":"m 146 629 q 117 611 131 629 q 101 564 103 593 l 101 0 l 28 0 l 28 971 l 101 971 l 101 647 q 136 679 117 667 q 175 692 156 692 l 179 692 q 242 659 224 692 q 261 568 261 626 l 261 0 l 188 0 l 188 567 q 176 614 188 599 q 150 629 165 629 l 146 629 m 100 1144 l 179 1025 l 110 1025 l 64 1107 l 19 1025 l -51 1025 l 28 1144 l 100 1144 z "},"Ħ":{"ha":306,"x_min":3,"x_max":303,"o":"m 28 715 l 28 971 l 107 971 l 107 715 l 199 715 l 199 971 l 278 971 l 278 715 l 303 715 l 303 661 l 278 661 l 278 0 l 199 0 l 199 456 l 107 456 l 107 0 l 28 0 l 28 661 l 3 661 l 3 715 l 28 715 m 199 514 l 199 661 l 107 661 l 107 514 l 199 514 z "},"ħ":{"ha":283,"x_min":-12,"x_max":261,"o":"m 146 629 q 117 611 131 629 q 101 564 103 593 l 101 0 l 28 0 l 28 826 l -12 826 l -12 881 l 28 881 l 28 971 l 101 971 l 101 881 l 168 881 l 168 826 l 101 826 l 101 647 q 136 679 117 667 q 175 692 156 692 l 179 692 q 242 659 224 692 q 261 568 261 626 l 261 0 l 188 0 l 188 567 q 176 614 188 599 q 150 629 165 629 l 146 629 z "},"Ĩ":{"ha":135,"x_min":-43,"x_max":179,"o":"m 28 971 l 28 0 l 107 0 l 107 971 l 28 971 m -43 1090 q 17 1133 -19 1133 q 61 1119 39 1133 q 107 1104 83 1104 q 143 1124 125 1104 l 179 1100 q 150 1068 165 1076 q 117 1060 135 1060 q 72 1074 93 1060 q 31 1088 50 1088 q -10 1068 8 1088 l -43 1090 z "},"Ĭ":{"ha":135,"x_min":-19,"x_max":158,"o":"m 28 971 l 28 0 l 107 0 l 107 971 l 28 971 m 26 1140 q 39 1112 26 1125 q 68 1099 51 1099 q 98 1112 85 1099 q 111 1140 111 1125 l 158 1140 q 132 1079 158 1106 q 67 1053 106 1053 q 7 1078 33 1053 q -19 1140 -19 1104 l 26 1140 z "},"İ":{"ha":135,"x_min":28,"x_max":107,"o":"m 28 971 l 28 0 l 107 0 l 107 971 l 28 971 m 92 1051 l 39 1051 l 39 1143 l 92 1143 l 92 1051 z "},"Ī":{"ha":135,"x_min":-22,"x_max":154,"o":"m 107 971 l 107 0 l 28 0 l 28 971 l 107 971 m 154 1069 l -22 1069 l -22 1124 l 154 1124 l 154 1069 z "},"Į":{"ha":135,"x_min":6,"x_max":140,"o":"m 140 -89 q 106 -123 129 -112 q 61 -131 83 -133 q 22 -113 39 -129 q 6 -69 6 -97 q 16 -32 6 -49 q 44 0 26 -15 l 28 0 l 28 971 l 107 971 l 107 0 l 104 0 q 65 -27 81 -8 q 50 -61 50 -46 q 74 -92 51 -89 q 113 -71 97 -94 l 140 -89 z "},"į":{"ha":125,"x_min":1,"x_max":135,"o":"m 135 -89 q 101 -123 124 -112 q 57 -131 79 -133 q 18 -113 35 -129 q 1 -69 1 -97 q 40 0 1 -31 l 28 0 l 28 688 l 101 688 l 101 0 l 99 0 q 60 -27 75 -8 q 46 -61 44 -46 q 53 -83 46 -75 q 69 -92 60 -90 q 90 -87 79 -93 q 108 -71 101 -82 l 135 -89 m 101 857 l 101 744 l 28 744 l 28 857 l 101 857 z "},"ĩ":{"ha":125,"x_min":-46,"x_max":176,"o":"m 28 688 l 28 0 l 101 0 l 101 688 l 28 688 m -46 799 q 14 840 -22 840 q 59 826 38 840 q 104 813 81 813 q 140 832 122 813 l 176 808 q 147 776 163 785 q 114 767 132 767 q 69 781 90 767 q 28 794 47 794 q 7 790 17 794 q -12 775 -3 786 l -46 799 z "},"ĭ":{"ha":125,"x_min":-22,"x_max":156,"o":"m 28 688 l 28 0 l 101 0 l 101 688 l 28 688 m 24 849 q 36 819 24 832 q 65 806 49 806 q 95 819 82 806 q 108 849 108 832 l 156 849 q 129 786 156 813 q 64 760 103 760 q 4 786 31 760 q -22 849 -22 813 l 24 849 z "},"ī":{"ha":125,"x_min":-25,"x_max":151,"o":"m 101 688 l 101 0 l 28 0 l 28 688 l 101 688 m 151 776 l -25 776 l -25 832 l 151 832 l 151 776 z "},"Ĵ":{"ha":306,"x_min":25,"x_max":357,"o":"m 142 -8 q 100 -1 121 -8 q 63 22 79 7 q 35 63 46 38 q 25 122 25 88 l 25 390 l 104 390 l 104 135 q 117 76 104 93 q 149 58 131 58 l 157 58 q 188 76 175 58 q 201 135 201 93 l 201 971 l 281 971 l 281 122 q 270 63 281 88 q 243 22 260 38 q 206 -1 226 7 q 164 -8 185 -8 l 142 -8 m 278 1144 l 357 1025 l 288 1025 l 242 1107 l 197 1025 l 126 1025 l 206 1144 l 278 1144 z "},"ĵ":{"ha":182,"x_min":6,"x_max":236,"o":"m 157 688 l 157 -107 q 126 -197 157 -165 q 25 -229 94 -229 l 25 -168 q 67 -153 51 -168 q 83 -107 83 -139 l 83 688 l 157 688 m 157 867 l 236 747 l 165 747 l 119 829 l 75 747 l 6 747 l 85 867 l 157 867 z "},"Ķ":{"ha":303,"x_min":28,"x_max":299,"o":"m 163 504 l 296 0 l 224 0 l 108 399 l 107 399 l 107 0 l 28 0 l 28 971 l 107 971 l 107 578 l 108 578 l 226 971 l 299 971 l 163 504 m 203 -142 l 172 -224 l 138 -224 l 158 -142 l 122 -142 l 122 -21 l 203 -21 l 203 -142 z "},"ķ":{"ha":272,"x_min":28,"x_max":269,"o":"m 146 358 l 269 0 l 194 0 l 100 274 l 100 0 l 28 0 l 28 971 l 100 971 l 100 433 l 199 688 l 269 688 l 146 358 m 185 -147 l 154 -229 l 119 -229 l 140 -147 l 104 -147 l 104 -26 l 185 -26 l 185 -147 z "},"Ļ":{"ha":229,"x_min":28,"x_max":225,"o":"m 107 971 l 107 60 l 225 60 l 225 0 l 28 0 l 28 971 l 107 971 m 163 -162 l 132 -244 l 97 -244 l 118 -162 l 82 -162 l 82 -42 l 163 -42 l 163 -162 z "},"Ĺ":{"ha":229,"x_min":28,"x_max":225,"o":"m 107 971 l 107 60 l 225 60 l 225 0 l 28 0 l 28 971 l 107 971 m 42 1025 l 100 1144 l 171 1144 l 92 1025 l 42 1025 z "},"Ŀ":{"ha":281,"x_min":28,"x_max":265,"o":"m 107 971 l 107 60 l 225 60 l 225 0 l 28 0 l 28 971 l 107 971 m 265 346 l 185 346 l 185 465 l 265 465 l 265 346 z "},"ŀ":{"ha":244,"x_min":28,"x_max":222,"o":"m 28 971 l 101 971 l 101 0 l 28 0 l 28 971 m 222 401 l 142 401 l 142 522 l 222 522 l 222 401 z "},"ļ":{"ha":124,"x_min":24,"x_max":104,"o":"m 28 971 l 101 971 l 101 0 l 28 0 l 28 971 m 104 -150 l 72 -232 l 39 -232 l 60 -150 l 24 -150 l 24 -31 l 104 -31 l 104 -150 z "},"ľ":{"ha":229,"x_min":28,"x_max":213,"o":"m 28 971 l 101 971 l 101 0 l 28 0 l 28 971 m 213 850 l 181 768 l 147 768 l 168 850 l 132 850 l 132 971 l 213 971 l 213 850 z "},"Ő":{"ha":306,"x_min":25,"x_max":303,"o":"m 142 -8 q 100 -1 121 -8 q 63 22 79 7 q 35 63 46 38 q 25 122 25 88 l 25 847 q 35 907 25 882 q 63 948 46 932 q 100 972 79 964 q 142 979 121 979 l 164 979 q 206 972 185 979 q 243 948 226 964 q 270 907 260 932 q 281 847 281 882 l 281 122 q 270 63 281 88 q 243 22 260 38 q 206 -1 226 7 q 164 -8 185 -8 l 142 -8 m 149 913 q 117 894 131 913 q 104 836 104 876 l 104 135 q 117 76 104 93 q 149 58 131 58 l 157 58 q 188 76 175 58 q 201 135 201 93 l 201 836 q 188 894 201 876 q 157 913 175 913 l 149 913 m 174 1021 l 232 1140 l 303 1140 l 224 1021 l 174 1021 m 76 1021 l 135 1140 l 206 1140 l 126 1021 l 76 1021 z "},"ő":{"ha":276,"x_min":24,"x_max":290,"o":"m 129 -4 q 54 28 85 -4 q 24 118 24 60 l 24 568 q 54 659 24 626 q 129 692 85 692 l 150 692 q 225 659 194 692 q 256 568 256 626 l 256 118 q 225 28 256 60 q 150 -4 194 -4 l 129 -4 m 136 629 q 109 614 121 629 q 97 567 97 599 l 97 119 q 109 72 97 88 q 136 57 121 57 l 144 57 q 171 72 160 57 q 182 119 182 88 l 182 567 q 171 614 182 599 q 144 629 160 629 l 136 629 m 161 739 l 219 858 l 290 858 l 211 739 l 161 739 m 64 739 l 122 858 l 193 858 l 114 739 l 64 739 z "},"Ŕ":{"ha":317,"x_min":28,"x_max":297,"o":"m 283 578 q 269 512 283 533 q 235 483 256 490 q 269 456 256 478 q 283 390 283 435 l 283 157 q 289 42 283 75 q 297 0 294 8 l 218 0 q 207 53 210 17 q 204 157 204 89 l 204 383 q 167 454 204 454 l 107 454 l 107 0 l 28 0 l 28 971 l 167 971 q 249 938 214 971 q 283 840 283 906 l 283 578 m 167 514 q 204 583 204 514 l 204 828 q 191 886 204 868 q 160 904 178 904 l 107 904 l 107 514 l 167 514 m 115 1025 l 174 1144 l 244 1144 l 165 1025 l 115 1025 z "},"ŕ":{"ha":281,"x_min":25,"x_max":260,"o":"m 144 629 q 115 611 129 629 q 99 564 100 593 l 99 0 l 25 0 l 25 688 l 99 688 l 99 649 q 134 680 115 668 q 172 692 153 692 l 176 692 q 244 651 225 692 q 260 568 260 618 l 260 404 l 186 404 l 186 567 q 174 614 186 599 q 147 629 163 629 l 144 629 m 108 743 l 167 863 l 236 863 l 157 743 l 108 743 z "},"Ŗ":{"ha":317,"x_min":28,"x_max":297,"o":"m 283 578 q 269 512 283 533 q 235 483 256 490 q 269 456 256 478 q 283 390 283 435 l 283 157 q 289 42 283 75 q 297 0 294 8 l 218 0 q 207 53 210 17 q 204 157 204 89 l 204 383 q 167 454 204 454 l 107 454 l 107 0 l 28 0 l 28 971 l 167 971 q 249 938 214 971 q 283 840 283 906 l 283 578 m 167 514 q 204 583 204 514 l 204 828 q 191 886 204 868 q 160 904 178 904 l 107 904 l 107 514 l 167 514 m 196 -162 l 165 -244 l 131 -244 l 151 -162 l 115 -162 l 115 -42 l 196 -42 l 196 -162 z "},"Ř":{"ha":317,"x_min":25,"x_max":297,"o":"m 283 840 q 249 938 283 906 q 167 971 214 971 l 28 971 l 28 0 l 107 0 l 107 454 l 167 454 q 204 383 204 454 l 204 157 q 207 53 204 89 q 218 0 210 17 l 297 0 q 289 42 294 8 q 283 157 283 75 l 283 390 q 269 456 283 435 q 235 483 256 478 q 269 512 256 490 q 283 578 283 533 l 283 840 m 107 514 l 107 904 l 160 904 q 191 886 178 904 q 204 828 204 868 l 204 583 q 167 514 204 514 l 107 514 m 104 1028 l 25 1147 l 96 1147 l 140 1064 l 186 1147 l 256 1147 l 176 1028 l 104 1028 z "},"ŗ":{"ha":281,"x_min":25,"x_max":260,"o":"m 144 629 q 115 611 129 629 q 99 564 100 593 l 99 0 l 25 0 l 25 688 l 99 688 l 99 649 q 134 680 115 668 q 172 692 153 692 l 176 692 q 244 651 225 692 q 260 568 260 618 l 260 404 l 186 404 l 186 567 q 174 614 186 599 q 147 629 163 629 l 144 629 m 192 -162 l 161 -244 l 126 -244 l 147 -162 l 111 -162 l 111 -42 l 192 -42 l 192 -162 z "},"ř":{"ha":281,"x_min":18,"x_max":260,"o":"m 147 629 q 174 614 163 629 q 186 567 186 599 l 186 404 l 260 404 l 260 568 q 244 651 260 618 q 176 692 225 692 l 172 692 q 134 680 153 692 q 99 649 115 668 l 99 688 l 25 688 l 25 0 l 99 0 l 99 564 q 115 611 100 593 q 144 629 129 629 l 147 629 m 97 746 l 18 865 l 88 865 l 132 782 l 178 865 l 249 865 l 169 746 l 97 746 z "},"Ŝ":{"ha":306,"x_min":25,"x_max":281,"o":"m 201 579 l 201 836 q 188 895 201 878 q 157 913 175 913 l 149 913 q 117 895 131 913 q 104 836 104 878 l 104 706 q 132 589 104 639 q 192 492 160 539 q 253 395 225 446 q 281 278 281 344 l 281 122 q 271 63 281 88 q 244 22 261 38 q 207 -1 228 7 q 164 -8 186 -8 l 144 -8 q 102 -1 124 -8 q 63 22 81 7 q 35 63 46 38 q 25 122 25 88 l 25 392 l 97 392 l 97 135 q 112 76 97 93 q 146 58 126 58 l 154 58 q 188 76 174 58 q 201 135 201 93 l 201 265 q 174 381 201 331 q 113 477 146 431 q 53 574 81 524 q 25 693 25 625 l 25 847 q 35 907 25 882 q 63 948 46 932 q 101 972 79 964 q 143 979 122 979 l 157 979 q 199 972 178 979 q 236 948 219 964 q 263 907 253 932 q 274 847 274 882 l 274 579 l 201 579 m 189 1144 l 268 1025 l 199 1025 l 153 1107 l 108 1025 l 38 1025 l 117 1144 l 189 1144 z "},"Ś":{"ha":306,"x_min":25,"x_max":281,"o":"m 201 579 l 201 836 q 188 895 201 878 q 157 913 175 913 l 149 913 q 117 895 131 913 q 104 836 104 878 l 104 706 q 132 589 104 639 q 192 492 160 539 q 253 395 225 446 q 281 278 281 344 l 281 122 q 271 63 281 88 q 244 22 261 38 q 207 -1 228 7 q 164 -8 186 -8 l 144 -8 q 102 -1 124 -8 q 63 22 81 7 q 35 63 46 38 q 25 122 25 88 l 25 392 l 97 392 l 97 135 q 112 76 97 93 q 146 58 126 58 l 154 58 q 188 76 174 58 q 201 135 201 93 l 201 265 q 174 381 201 331 q 113 477 146 431 q 53 574 81 524 q 25 693 25 625 l 25 847 q 35 907 25 882 q 63 948 46 932 q 101 972 79 964 q 143 979 122 979 l 157 979 q 199 972 178 979 q 236 948 219 964 q 263 907 253 932 q 274 847 274 882 l 274 579 l 201 579 m 126 1025 l 185 1144 l 256 1144 l 176 1025 l 126 1025 z "},"Ş":{"ha":306,"x_min":25,"x_max":281,"o":"m 79 -97 q 110 -111 92 -107 q 145 -113 129 -115 q 172 -103 161 -111 q 182 -78 183 -94 q 161 -53 181 -58 q 126 -58 142 -47 l 110 -53 l 131 -7 q 92 3 111 -6 q 58 27 72 11 q 34 67 43 43 q 25 122 25 90 l 25 392 l 97 392 l 97 135 q 112 76 97 93 q 146 58 126 58 l 154 58 q 188 76 174 58 q 201 135 201 93 l 201 265 q 174 381 201 331 q 113 477 146 431 q 53 574 81 524 q 25 693 25 625 l 25 847 q 35 907 25 882 q 63 948 46 932 q 101 972 79 964 q 143 979 122 979 l 157 979 q 199 972 178 979 q 236 948 219 964 q 263 907 253 932 q 274 847 274 882 l 274 579 l 201 579 l 201 836 q 188 895 201 878 q 157 913 175 913 l 149 913 q 117 895 131 913 q 104 836 104 878 l 104 706 q 132 589 104 639 q 192 492 160 539 q 253 395 225 446 q 281 278 281 344 l 281 122 q 249 26 281 56 q 176 -7 217 -4 l 165 -36 q 213 -37 189 -25 q 236 -76 236 -49 q 216 -128 236 -110 q 168 -151 196 -146 q 113 -151 140 -157 q 71 -133 85 -146 l 79 -97 z "},"Ű":{"ha":308,"x_min":28,"x_max":283,"o":"m 144 -8 q 103 -1 124 -8 q 65 22 82 7 q 38 63 49 38 q 28 122 28 88 l 28 971 l 107 971 l 107 135 q 120 76 107 93 q 151 58 133 58 l 160 58 q 191 76 178 58 q 204 135 204 93 l 204 971 l 283 971 l 283 122 q 273 63 283 88 q 246 22 263 38 q 208 -1 229 7 q 167 -8 188 -8 l 144 -8 m 57 1021 l 115 1140 l 185 1140 l 106 1021 l 57 1021 m 154 1021 l 213 1140 l 282 1140 l 203 1021 l 154 1021 z "},"ų":{"ha":281,"x_min":22,"x_max":296,"o":"m 138 57 q 168 77 153 57 q 183 129 183 97 l 183 688 l 257 688 l 257 0 l 260 0 q 221 -27 236 -8 q 206 -61 206 -46 q 230 -92 207 -89 q 268 -71 253 -94 l 296 -89 q 262 -123 285 -112 q 217 -131 239 -133 q 178 -113 194 -129 q 161 -69 161 -97 q 172 -32 161 -49 q 200 0 182 -15 l 183 0 l 183 39 q 147 8 165 19 q 108 -4 128 -4 l 104 -4 q 41 28 60 -4 q 22 118 22 60 l 22 688 l 96 688 l 96 119 q 107 72 96 88 q 133 57 118 57 l 138 57 z "},"ű":{"ha":281,"x_min":22,"x_max":289,"o":"m 138 57 q 167 75 153 57 q 183 122 181 93 l 183 688 l 257 688 l 257 0 l 183 0 l 183 39 q 147 8 165 19 q 108 -4 128 -4 l 104 -4 q 41 28 60 -4 q 22 118 22 60 l 22 688 l 96 688 l 96 119 q 107 72 96 88 q 133 57 118 57 l 138 57 m 64 738 l 122 857 l 192 857 l 113 738 l 64 738 m 161 738 l 219 857 l 289 857 l 210 738 l 161 738 z "},"Ŵ":{"ha":451,"x_min":0,"x_max":451,"o":"m 72 0 l 0 971 l 76 971 l 126 269 l 128 269 l 193 971 l 258 971 l 329 269 l 332 269 l 382 971 l 451 971 l 379 0 l 300 0 l 226 663 l 225 663 l 161 0 l 72 0 m 260 1144 l 339 1025 l 269 1025 l 224 1107 l 179 1025 l 108 1025 l 188 1144 l 260 1144 z "},"ŵ":{"ha":428,"x_min":3,"x_max":425,"o":"m 72 0 l 3 688 l 71 688 l 118 190 l 121 190 l 185 688 l 250 688 l 314 190 l 315 190 l 363 688 l 425 688 l 356 0 l 274 0 l 211 528 l 210 528 l 153 0 l 72 0 m 253 861 l 332 742 l 261 742 l 215 824 l 171 742 l 101 742 l 181 861 l 253 861 z "},"Ŷ":{"ha":296,"x_min":4,"x_max":292,"o":"m 188 369 l 188 0 l 108 0 l 108 369 l 4 971 l 83 971 l 146 550 l 149 550 l 213 971 l 292 971 l 188 369 m 185 1144 l 264 1025 l 193 1025 l 147 1107 l 103 1025 l 33 1025 l 113 1144 l 185 1144 z "},"ŷ":{"ha":249,"x_min":3,"x_max":246,"o":"m 185 688 l 246 688 l 147 -229 l 75 -229 l 103 0 l 3 688 l 69 688 l 128 207 l 131 207 l 185 688 m 164 861 l 243 742 l 174 742 l 128 824 l 83 742 l 13 742 l 92 861 l 164 861 z "},"Ÿ":{"ha":296,"x_min":4,"x_max":292,"o":"m 292 971 l 213 971 l 149 550 l 146 550 l 83 971 l 4 971 l 108 369 l 108 0 l 188 0 l 188 369 l 292 971 m 125 1042 l 72 1042 l 72 1133 l 125 1133 l 125 1042 m 224 1042 l 171 1042 l 171 1133 l 224 1133 l 224 1042 z "},"Ź":{"ha":292,"x_min":14,"x_max":278,"o":"m 278 0 l 14 0 l 14 57 l 185 911 l 39 911 l 39 971 l 265 971 l 265 914 l 93 60 l 278 60 l 278 0 m 119 1025 l 178 1144 l 249 1144 l 169 1025 l 119 1025 z "},"Ž":{"ha":292,"x_min":14,"x_max":278,"o":"m 278 0 l 14 0 l 14 57 l 185 911 l 39 911 l 39 971 l 265 971 l 265 914 l 93 60 l 278 60 l 278 0 m 108 1028 l 29 1147 l 100 1147 l 144 1064 l 190 1147 l 260 1147 l 181 1028 l 108 1028 z "},"Ż":{"ha":292,"x_min":14,"x_max":278,"o":"m 278 0 l 14 0 l 14 57 l 185 911 l 39 911 l 39 971 l 265 971 l 265 914 l 93 60 l 278 60 l 278 0 m 171 1043 l 118 1043 l 118 1135 l 171 1135 l 171 1043 z "},"ź":{"ha":236,"x_min":3,"x_max":232,"o":"m 232 0 l 3 0 l 3 60 l 157 628 l 18 628 l 18 688 l 229 688 l 229 628 l 75 60 l 232 60 l 232 0 m 97 743 l 156 863 l 225 863 l 146 743 l 97 743 z "},"ž":{"ha":236,"x_min":3,"x_max":238,"o":"m 232 0 l 3 0 l 3 60 l 157 628 l 18 628 l 18 688 l 229 688 l 229 628 l 75 60 l 232 60 l 232 0 m 86 746 l 7 865 l 76 865 l 121 782 l 167 865 l 238 865 l 158 746 l 86 746 z "},"ż":{"ha":236,"x_min":3,"x_max":232,"o":"m 232 0 l 3 0 l 3 60 l 157 628 l 18 628 l 18 688 l 229 688 l 229 628 l 75 60 l 232 60 l 232 0 m 147 760 l 94 760 l 94 853 l 147 853 l 147 760 z "},"Š":{"ha":306,"x_min":25,"x_max":281,"o":"m 274 579 l 274 847 q 263 907 274 882 q 236 948 253 932 q 199 972 219 964 q 157 979 178 979 l 143 979 q 101 972 122 979 q 63 948 79 964 q 35 907 46 932 q 25 847 25 882 l 25 693 q 53 574 25 625 q 113 477 81 524 q 174 381 146 431 q 201 265 201 331 l 201 135 q 188 76 201 93 q 154 58 174 58 l 146 58 q 112 76 126 58 q 97 135 97 93 l 97 392 l 25 392 l 25 122 q 35 63 25 88 q 63 22 46 38 q 102 -1 81 7 q 144 -8 124 -8 l 164 -8 q 207 -1 186 -8 q 244 22 228 7 q 271 63 261 38 q 281 122 281 88 l 281 278 q 253 395 281 344 q 192 492 225 446 q 132 589 160 539 q 104 706 104 639 l 104 836 q 117 895 104 878 q 149 913 131 913 l 157 913 q 188 895 175 913 q 201 836 201 878 l 201 579 l 274 579 m 115 1028 l 36 1147 l 107 1147 l 151 1064 l 197 1147 l 267 1147 l 188 1028 l 115 1028 z "},"š":{"ha":276,"x_min":19,"x_max":256,"o":"m 249 417 l 249 568 q 217 659 249 626 q 142 692 186 692 l 129 692 q 54 659 85 692 q 24 568 24 626 l 24 485 q 49 398 24 433 q 103 332 74 363 q 157 271 132 301 q 182 197 182 240 l 182 119 q 170 73 182 89 q 142 57 158 57 l 132 57 q 102 73 114 57 q 90 119 90 89 l 90 271 l 24 271 l 24 118 q 55 28 24 60 q 131 -4 86 -4 l 151 -4 q 224 28 193 -4 q 256 118 256 60 l 256 201 q 244 261 256 235 q 215 309 232 288 q 176 351 197 331 q 138 392 156 371 q 109 436 121 413 q 97 490 97 460 l 97 567 q 109 613 97 597 q 136 629 121 629 l 143 629 q 170 613 158 629 q 182 567 182 597 l 182 417 l 249 417 m 99 746 l 19 865 l 90 865 l 135 782 l 181 865 l 250 865 l 171 746 l 99 746 z "},"Ţ":{"ha":269,"x_min":4,"x_max":265,"o":"m 265 904 l 175 904 l 175 0 l 96 0 l 96 904 l 4 904 l 4 971 l 265 971 l 265 904 m 51 -126 l 60 -90 q 91 -104 72 -100 q 126 -106 110 -108 q 153 -96 142 -104 q 163 -71 164 -87 q 142 -46 161 -51 q 107 -51 122 -40 l 90 -46 l 113 0 l 157 0 l 146 -29 q 193 -30 169 -18 q 217 -69 217 -42 q 197 -121 217 -103 q 149 -144 176 -139 q 93 -144 121 -150 q 51 -126 65 -139 z "},"Ť":{"ha":269,"x_min":4,"x_max":265,"o":"m 265 971 l 4 971 l 4 904 l 96 904 l 96 0 l 175 0 l 175 904 l 265 904 l 265 971 m 99 1028 l 19 1147 l 89 1147 l 133 1064 l 179 1147 l 250 1147 l 171 1028 l 99 1028 z "},"ť":{"ha":289,"x_min":11,"x_max":268,"o":"m 119 913 l 119 688 l 178 688 l 178 625 l 119 625 l 119 118 q 135 68 119 85 q 178 57 150 51 l 178 -3 q 76 24 107 -11 q 46 118 46 60 l 46 625 l 11 625 l 11 688 l 46 688 l 46 906 l 119 913 m 268 792 l 236 710 l 203 710 l 224 792 l 188 792 l 188 911 l 268 911 l 268 792 z "}," ":{"ha":0,"x_min":0,"x_max":0,"o":""},"ŧ":{"ha":192,"x_min":11,"x_max":178,"o":"m 119 913 l 119 688 l 178 688 l 178 625 l 119 625 l 119 507 l 178 507 l 178 444 l 119 444 l 119 118 q 135 68 119 85 q 178 57 150 51 l 178 -3 q 76 24 107 -11 q 46 118 46 60 l 46 444 l 11 444 l 11 507 l 46 507 l 46 625 l 11 625 l 11 688 l 46 688 l 46 906 l 119 913 z "},"Ŧ":{"ha":269,"x_min":4,"x_max":265,"o":"m 238 454 l 175 454 l 175 0 l 96 0 l 96 454 l 32 454 l 32 508 l 96 508 l 96 904 l 4 904 l 4 971 l 265 971 l 265 904 l 175 904 l 175 508 l 238 508 l 238 454 z "},"ţ":{"ha":192,"x_min":11,"x_max":226,"o":"m 119 913 l 119 688 l 178 688 l 178 625 l 119 625 l 119 118 q 135 68 119 85 q 178 57 150 51 l 178 -3 q 172 -3 175 -3 q 165 -4 168 -4 l 156 -28 q 203 -30 179 -18 q 226 -68 226 -42 q 206 -119 226 -101 q 158 -143 186 -137 q 103 -144 131 -149 q 61 -126 75 -139 l 69 -90 q 101 -103 82 -99 q 135 -105 119 -107 q 163 -94 151 -103 q 172 -69 174 -86 q 151 -46 171 -51 q 117 -51 132 -40 l 100 -44 l 122 0 q 64 41 82 8 q 46 118 46 74 l 46 625 l 11 625 l 11 688 l 46 688 l 46 906 l 119 913 z "},"Ũ":{"ha":308,"x_min":28,"x_max":283,"o":"m 144 -8 q 103 -1 124 -8 q 65 22 82 7 q 38 63 49 38 q 28 122 28 88 l 28 971 l 107 971 l 107 135 q 120 76 107 93 q 151 58 133 58 l 160 58 q 191 76 178 58 q 204 135 204 93 l 204 971 l 283 971 l 283 122 q 273 63 283 88 q 246 22 263 38 q 208 -1 229 7 q 167 -8 188 -8 l 144 -8 m 35 1082 q 94 1124 57 1124 q 139 1110 118 1124 q 183 1096 160 1096 q 221 1115 203 1096 l 257 1092 q 228 1059 243 1068 q 194 1050 213 1050 q 149 1064 169 1050 q 108 1078 128 1078 q 88 1074 97 1078 q 67 1058 78 1069 l 35 1082 z "},"Ů":{"ha":308,"x_min":28,"x_max":283,"o":"m 144 -8 q 103 -1 124 -8 q 65 22 82 7 q 38 63 49 38 q 28 122 28 88 l 28 971 l 107 971 l 107 135 q 120 76 107 93 q 151 58 133 58 l 160 58 q 191 76 178 58 q 204 135 204 93 l 204 971 l 283 971 l 283 122 q 273 63 283 88 q 246 22 263 38 q 208 -1 229 7 q 167 -8 188 -8 l 144 -8 m 144 1015 q 88 1040 113 1015 q 63 1096 63 1064 q 87 1156 63 1131 q 143 1182 111 1182 q 203 1157 178 1182 q 229 1096 229 1132 q 205 1040 229 1064 q 144 1015 181 1015 m 144 1140 q 116 1127 129 1140 q 103 1097 103 1114 q 116 1069 103 1082 q 144 1056 129 1056 q 174 1069 161 1056 q 188 1097 188 1082 q 174 1127 188 1114 q 144 1140 161 1140 z "},"Ŭ":{"ha":308,"x_min":28,"x_max":283,"o":"m 144 -8 q 103 -1 124 -8 q 65 22 82 7 q 38 63 49 38 q 28 122 28 88 l 28 971 l 107 971 l 107 135 q 120 76 107 93 q 151 58 133 58 l 160 58 q 191 76 178 58 q 204 135 204 93 l 204 971 l 283 971 l 283 122 q 273 63 283 88 q 246 22 263 38 q 208 -1 229 7 q 167 -8 188 -8 l 144 -8 m 103 1132 q 115 1102 103 1115 q 144 1089 128 1089 q 175 1102 163 1089 q 188 1132 188 1115 l 235 1132 q 208 1069 235 1096 q 144 1043 182 1043 q 83 1069 110 1043 q 57 1132 57 1096 l 103 1132 z "},"Ū":{"ha":308,"x_min":28,"x_max":283,"o":"m 144 -8 q 103 -1 124 -8 q 65 22 82 7 q 38 63 49 38 q 28 122 28 88 l 28 971 l 107 971 l 107 135 q 120 76 107 93 q 151 58 133 58 l 160 58 q 191 76 178 58 q 204 135 204 93 l 204 971 l 283 971 l 283 122 q 273 63 283 88 q 246 22 263 38 q 208 -1 229 7 q 167 -8 188 -8 l 144 -8 m 231 1060 l 56 1060 l 56 1115 l 231 1115 l 231 1060 z "},"ũ":{"ha":281,"x_min":22,"x_max":257,"o":"m 133 57 q 107 72 118 57 q 96 119 96 88 l 96 688 l 22 688 l 22 118 q 41 28 22 60 q 104 -4 60 -4 l 108 -4 q 147 8 128 -4 q 183 39 165 19 l 183 0 l 257 0 l 257 688 l 183 688 l 183 129 q 168 77 183 97 q 138 57 153 57 l 133 57 m 29 799 q 89 840 53 840 q 134 826 113 840 q 179 813 156 813 q 215 832 197 813 l 251 808 q 222 776 238 785 q 189 767 207 767 q 144 781 165 767 q 103 794 122 794 q 82 790 92 794 q 63 775 72 786 l 29 799 z "},"ů":{"ha":281,"x_min":22,"x_max":257,"o":"m 133 57 q 107 72 118 57 q 96 119 96 88 l 96 688 l 22 688 l 22 118 q 41 28 22 60 q 104 -4 60 -4 l 108 -4 q 147 8 128 -4 q 183 39 165 19 l 183 0 l 257 0 l 257 688 l 183 688 l 183 122 q 167 75 181 93 q 138 57 153 57 l 133 57 m 139 732 q 82 756 107 732 q 57 813 57 781 q 81 873 57 847 q 139 899 106 899 q 199 874 174 899 q 224 813 224 849 q 199 756 224 781 q 139 732 175 732 m 139 857 q 110 844 124 857 q 97 814 97 831 q 110 785 97 799 q 139 772 124 772 q 169 785 157 772 q 182 814 182 799 q 169 844 182 831 q 139 857 157 857 z "},"ŭ":{"ha":281,"x_min":22,"x_max":257,"o":"m 133 57 q 107 72 118 57 q 96 119 96 88 l 96 688 l 22 688 l 22 118 q 41 28 22 60 q 104 -4 60 -4 l 108 -4 q 147 8 128 -4 q 183 39 165 19 l 183 0 l 257 0 l 257 688 l 183 688 l 183 129 q 168 77 183 97 q 138 57 153 57 l 133 57 m 99 849 q 111 819 99 832 q 140 806 124 806 q 170 819 157 806 q 183 849 183 832 l 231 849 q 204 786 231 813 q 139 760 178 760 q 79 786 106 760 q 53 849 53 813 l 99 849 z "},"ū":{"ha":281,"x_min":22,"x_max":257,"o":"m 138 57 q 168 77 153 57 q 183 129 183 97 l 183 688 l 257 688 l 257 0 l 183 0 l 183 39 q 147 8 165 19 q 108 -4 128 -4 l 104 -4 q 41 28 60 -4 q 22 118 22 60 l 22 688 l 96 688 l 96 119 q 107 72 96 88 q 133 57 118 57 l 138 57 m 226 776 l 50 776 l 50 832 l 226 832 l 226 776 z "},"ĳ":{"ha":268,"x_min":28,"x_max":240,"o":"m 101 688 l 101 0 l 28 0 l 28 688 l 101 688 m 101 857 l 101 744 l 28 744 l 28 857 l 101 857 m 240 860 l 240 743 l 167 743 l 167 860 l 240 860 m 240 688 l 240 -107 q 210 -197 240 -165 q 108 -229 179 -229 l 108 -168 q 151 -153 136 -168 q 167 -107 167 -139 l 167 688 l 240 688 z "},"Ń":{"ha":339,"x_min":22,"x_max":317,"o":"m 226 0 l 90 731 l 89 731 l 89 0 l 22 0 l 22 971 l 113 971 l 243 249 l 244 249 l 244 971 l 317 971 l 317 0 l 226 0 m 144 1025 l 203 1144 l 272 1144 l 193 1025 l 144 1025 z "},"Ň":{"ha":339,"x_min":22,"x_max":317,"o":"m 226 0 l 90 731 l 89 731 l 89 0 l 22 0 l 22 971 l 113 971 l 243 249 l 244 249 l 244 971 l 317 971 l 317 0 l 226 0 m 133 1028 l 54 1147 l 124 1147 l 168 1064 l 214 1147 l 285 1147 l 206 1028 l 133 1028 z "},"ņ":{"ha":282,"x_min":25,"x_max":260,"o":"m 144 629 q 115 611 129 629 q 99 564 100 593 l 99 0 l 25 0 l 25 688 l 99 688 l 99 649 q 134 680 115 668 q 172 692 153 692 l 176 692 q 240 659 221 692 q 260 568 260 626 l 260 0 l 186 0 l 186 567 q 174 614 186 599 q 147 629 163 629 l 144 629 m 183 -147 l 151 -229 l 118 -229 l 139 -147 l 103 -147 l 103 -26 l 183 -26 l 183 -147 z "},"ń":{"ha":282,"x_min":25,"x_max":260,"o":"m 144 629 q 115 611 129 629 q 99 564 100 593 l 99 0 l 25 0 l 25 688 l 99 688 l 99 649 q 134 680 115 668 q 172 692 153 692 l 176 692 q 240 659 221 692 q 260 568 260 626 l 260 0 l 186 0 l 186 567 q 174 614 186 599 q 147 629 163 629 l 144 629 m 100 743 l 158 863 l 229 863 l 150 743 l 100 743 z "},"ň":{"ha":282,"x_min":25,"x_max":260,"o":"m 147 629 q 174 614 163 629 q 186 567 186 599 l 186 0 l 260 0 l 260 568 q 240 659 260 626 q 176 692 221 692 l 172 692 q 134 680 153 692 q 99 649 115 668 l 99 688 l 25 688 l 25 0 l 99 0 l 99 564 q 115 611 100 593 q 144 629 129 629 l 147 629 m 108 746 l 29 865 l 99 865 l 143 782 l 189 865 l 260 865 l 181 746 l 108 746 z "},"Ņ":{"ha":339,"x_min":22,"x_max":317,"o":"m 226 0 l 90 731 l 89 731 l 89 0 l 22 0 l 22 971 l 113 971 l 243 249 l 244 249 l 244 971 l 317 971 l 317 0 l 226 0 m 196 -142 l 165 -224 l 131 -224 l 151 -142 l 115 -142 l 115 -21 l 196 -21 l 196 -142 z "},"Ŋ":{"ha":336,"x_min":25,"x_max":311,"o":"m 222 0 l 89 733 l 88 733 l 88 0 l 25 0 l 25 971 l 114 971 l 242 246 l 243 246 l 243 971 l 311 971 l 311 -107 q 273 -197 311 -165 q 165 -229 235 -229 l 165 -168 q 208 -153 192 -168 q 224 -107 224 -139 l 224 0 l 222 0 z "},"ŋ":{"ha":282,"x_min":25,"x_max":260,"o":"m 144 629 q 115 611 129 629 q 99 564 100 593 l 99 0 l 25 0 l 25 688 l 99 688 l 99 649 q 134 680 115 668 q 172 692 153 692 l 176 692 q 240 659 221 692 q 260 568 260 626 l 260 -107 q 228 -197 260 -165 q 128 -229 197 -229 l 128 -168 q 170 -153 154 -168 q 186 -107 186 -139 l 186 567 q 174 614 186 599 q 147 629 163 629 l 144 629 z "},"Ŏ":{"ha":306,"x_min":25,"x_max":281,"o":"m 142 -8 q 100 -1 121 -8 q 63 22 79 7 q 35 63 46 38 q 25 122 25 88 l 25 847 q 35 907 25 882 q 63 948 46 932 q 100 972 79 964 q 142 979 121 979 l 164 979 q 206 972 185 979 q 243 948 226 964 q 270 907 260 932 q 281 847 281 882 l 281 122 q 270 63 281 88 q 243 22 260 38 q 206 -1 226 7 q 164 -8 185 -8 l 142 -8 m 149 913 q 117 894 131 913 q 104 836 104 876 l 104 135 q 117 76 104 93 q 149 58 131 58 l 157 58 q 188 76 175 58 q 201 135 201 93 l 201 836 q 188 894 201 876 q 157 913 175 913 l 149 913 m 111 1132 q 124 1102 111 1115 q 153 1089 136 1089 q 183 1102 171 1089 q 196 1132 196 1115 l 243 1132 q 217 1069 243 1096 q 153 1043 190 1043 q 92 1069 118 1043 q 65 1132 65 1096 l 111 1132 z "},"Ō":{"ha":306,"x_min":25,"x_max":281,"o":"m 142 -8 q 100 -1 121 -8 q 63 22 79 7 q 35 63 46 38 q 25 122 25 88 l 25 847 q 35 907 25 882 q 63 948 46 932 q 100 972 79 964 q 142 979 121 979 l 164 979 q 206 972 185 979 q 243 948 226 964 q 270 907 260 932 q 281 847 281 882 l 281 122 q 270 63 281 88 q 243 22 260 38 q 206 -1 226 7 q 164 -8 185 -8 l 142 -8 m 149 913 q 117 894 131 913 q 104 836 104 876 l 104 135 q 117 76 104 93 q 149 58 131 58 l 157 58 q 188 76 175 58 q 201 135 201 93 l 201 836 q 188 894 201 876 q 157 913 175 913 l 149 913 m 239 1060 l 64 1060 l 64 1115 l 239 1115 l 239 1060 z "},"ŏ":{"ha":276,"x_min":24,"x_max":256,"o":"m 129 -4 q 54 28 85 -4 q 24 118 24 60 l 24 568 q 54 659 24 626 q 129 692 85 692 l 150 692 q 225 659 194 692 q 256 568 256 626 l 256 118 q 225 28 256 60 q 150 -4 194 -4 l 129 -4 m 136 629 q 109 614 121 629 q 97 567 97 599 l 97 119 q 109 72 97 88 q 136 57 121 57 l 144 57 q 171 72 160 57 q 182 119 182 88 l 182 567 q 171 614 182 599 q 144 629 160 629 l 136 629 m 99 850 q 111 820 99 833 q 140 807 124 807 q 171 820 158 807 q 183 850 183 833 l 231 850 q 204 788 231 814 q 140 761 178 761 q 79 788 106 761 q 53 850 53 814 l 99 850 z "},"ō":{"ha":276,"x_min":24,"x_max":256,"o":"m 129 -4 q 54 28 85 -4 q 24 118 24 60 l 24 568 q 54 659 24 626 q 129 692 85 692 l 150 692 q 225 659 194 692 q 256 568 256 626 l 256 118 q 225 28 256 60 q 150 -4 194 -4 l 129 -4 m 136 629 q 109 614 121 629 q 97 567 97 599 l 97 119 q 109 72 97 88 q 136 57 121 57 l 144 57 q 171 72 160 57 q 182 119 182 88 l 182 567 q 171 614 182 599 q 144 629 160 629 l 136 629 m 226 778 l 51 778 l 51 833 l 226 833 l 226 778 z "},"ſ":{"ha":221,"x_min":24,"x_max":218,"o":"m 24 688 l 58 688 l 58 857 q 68 912 58 886 q 98 954 78 938 q 148 977 118 971 q 218 974 178 983 l 218 915 q 160 906 189 921 q 132 851 132 892 l 132 0 l 58 0 l 58 625 l 24 625 l 24 688 z "},"ŉ":{"ha":367,"x_min":18,"x_max":344,"o":"m 232 629 q 259 614 247 629 q 271 567 271 599 l 271 0 l 344 0 l 344 568 q 325 659 344 626 q 261 692 306 692 l 257 692 q 219 680 238 692 q 183 649 200 668 l 183 688 l 110 688 l 110 0 l 183 0 l 183 564 q 199 611 185 593 q 229 629 214 629 l 232 629 m 99 826 l 67 744 l 33 744 l 54 826 l 18 826 l 18 946 l 99 946 l 99 826 z "},"Ĳ":{"ha":442,"x_min":28,"x_max":415,"o":"m 107 971 l 107 0 l 28 0 l 28 971 l 107 971 m 276 -8 q 234 -1 256 -8 q 196 22 213 7 q 169 63 179 38 q 158 122 158 88 l 158 390 l 238 390 l 238 135 q 251 76 238 93 q 282 58 264 58 l 292 58 q 323 76 310 58 q 336 135 336 93 l 336 971 l 415 971 l 415 122 q 405 63 415 88 q 378 22 394 38 q 340 -1 361 7 q 297 -8 319 -8 l 276 -8 z "},"ĸ":{"ha":272,"x_min":28,"x_max":269,"o":"m 146 358 l 269 0 l 194 0 l 100 274 l 100 0 l 28 0 l 28 688 l 100 688 l 100 433 l 199 688 l 269 688 l 146 358 z "},"Ð":{"ha":308,"x_min":-8,"x_max":283,"o":"m 28 0 l 28 458 l -8 458 l -8 514 l 28 514 l 28 971 l 167 971 q 208 964 188 971 q 246 942 229 957 q 273 902 263 926 q 283 843 283 878 l 283 126 q 273 67 283 92 q 246 28 263 43 q 208 7 229 14 q 167 0 188 0 l 28 0 m 107 904 l 107 514 l 142 514 l 142 458 l 107 458 l 107 67 l 160 67 q 191 82 178 67 q 204 139 204 97 l 204 832 q 191 888 204 872 q 160 904 178 904 l 107 904 z "},"Ľ":{"ha":281,"x_min":28,"x_max":244,"o":"m 28 971 l 28 0 l 225 0 l 225 60 l 107 60 l 107 971 l 28 971 m 244 851 l 214 769 l 179 769 l 200 851 l 164 851 l 164 972 l 244 972 l 244 851 z "},"Ų":{"ha":308,"x_min":28,"x_max":283,"o":"m 228 -97 q 194 -131 217 -121 q 150 -140 172 -142 q 111 -122 128 -137 q 94 -78 94 -106 q 105 -40 94 -57 q 133 -8 115 -22 l 135 -8 q 96 1 115 -7 q 61 25 76 10 q 37 65 46 40 q 28 122 28 89 l 28 971 l 107 971 l 107 135 q 120 76 107 93 q 151 58 133 58 l 160 58 q 191 76 178 58 q 204 135 204 93 l 204 971 l 283 971 l 283 122 q 255 31 283 61 q 190 -6 226 1 q 152 -35 167 -17 q 139 -69 138 -54 q 146 -91 139 -83 q 163 -100 153 -99 q 183 -96 172 -101 q 201 -79 194 -90 l 228 -97 z "},"ð":{"ha":314,"x_min":24,"x_max":314,"o":"m 256 0 l 196 0 l 188 42 q 151 8 171 21 q 113 -4 132 -4 l 108 -4 q 44 28 64 -4 q 24 118 24 60 l 24 568 q 42 659 24 626 q 106 692 61 692 l 110 692 q 147 681 128 692 q 182 650 165 669 l 182 826 l 133 826 l 133 881 l 182 881 l 182 971 l 256 971 l 256 881 l 314 881 l 314 826 l 256 826 l 256 0 m 136 629 q 109 614 121 629 q 97 567 97 599 l 97 119 q 108 72 97 88 q 135 57 119 57 l 139 57 q 168 76 154 57 q 182 126 182 94 l 182 560 q 168 610 182 592 q 139 629 154 629 l 136 629 z "},"í":{"ha":125,"x_min":28,"x_max":167,"o":"m 101 688 l 101 0 l 28 0 l 28 688 l 101 688 m 39 742 l 97 861 l 167 861 l 88 742 l 39 742 z "},"ĺ":{"ha":124,"x_min":28,"x_max":168,"o":"m 28 971 l 101 971 l 101 0 l 28 0 l 28 971 m 40 1025 l 99 1144 l 168 1144 l 89 1025 l 40 1025 z "},"ś":{"ha":276,"x_min":24,"x_max":256,"o":"m 182 417 l 182 567 q 170 613 182 597 q 143 629 158 629 l 136 629 q 109 613 121 629 q 97 567 97 597 l 97 490 q 109 436 97 460 q 138 392 121 413 q 176 351 156 371 q 215 309 197 331 q 244 261 232 288 q 256 201 256 235 l 256 118 q 224 28 256 60 q 151 -4 193 -4 l 131 -4 q 55 28 86 -4 q 24 118 24 60 l 24 271 l 90 271 l 90 119 q 102 73 90 89 q 132 57 114 57 l 142 57 q 170 73 158 57 q 182 119 182 89 l 182 197 q 157 271 182 240 q 103 332 132 301 q 49 398 74 363 q 24 485 24 433 l 24 568 q 54 659 24 626 q 129 692 85 692 l 142 692 q 217 659 186 692 q 249 568 249 626 l 249 417 l 182 417 m 110 743 l 168 863 l 239 863 l 160 743 l 110 743 z "},"ŝ":{"ha":276,"x_min":21,"x_max":256,"o":"m 182 417 l 182 567 q 170 613 182 597 q 143 629 158 629 l 136 629 q 109 613 121 629 q 97 567 97 597 l 97 490 q 109 436 97 460 q 138 392 121 413 q 176 351 156 371 q 215 309 197 331 q 244 261 232 288 q 256 201 256 235 l 256 118 q 224 28 256 60 q 151 -4 193 -4 l 131 -4 q 55 28 86 -4 q 24 118 24 60 l 24 271 l 90 271 l 90 119 q 102 73 90 89 q 132 57 114 57 l 142 57 q 170 73 158 57 q 182 119 182 89 l 182 197 q 157 271 182 240 q 103 332 132 301 q 49 398 74 363 q 24 485 24 433 l 24 568 q 54 659 24 626 q 129 692 85 692 l 142 692 q 217 659 186 692 q 249 568 249 626 l 249 417 l 182 417 m 172 863 l 251 743 l 182 743 l 136 825 l 92 743 l 21 743 l 100 863 l 172 863 z "},"ş":{"ha":276,"x_min":24,"x_max":256,"o":"m 65 -94 q 97 -108 78 -104 q 132 -110 115 -112 q 160 -100 149 -108 q 169 -75 171 -92 q 147 -51 167 -57 q 113 -56 128 -46 l 96 -50 l 118 -3 q 51 32 78 0 q 24 118 24 64 l 24 271 l 90 271 l 90 119 q 102 73 90 89 q 132 57 114 57 l 142 57 q 170 73 158 57 q 182 119 182 89 l 182 197 q 157 271 182 240 q 103 332 132 301 q 49 398 74 363 q 24 485 24 433 l 24 568 q 54 659 24 626 q 129 692 85 692 l 142 692 q 217 659 186 692 q 249 568 249 626 l 249 417 l 182 417 l 182 567 q 170 613 182 597 q 143 629 158 629 l 136 629 q 109 613 121 629 q 97 567 97 597 l 97 490 q 109 436 97 460 q 138 392 121 413 q 176 351 156 371 q 215 309 197 331 q 244 261 232 288 q 256 201 256 235 l 256 118 q 228 31 256 63 q 163 -3 200 0 l 151 -33 q 199 -34 176 -22 q 222 -74 222 -46 q 202 -125 222 -107 q 154 -149 182 -143 q 99 -149 126 -154 q 57 -131 71 -143 l 65 -94 z "},"−":{"ha":335,"x_min":28,"x_max":307,"o":"m 307 513 l 307 458 l 28 458 l 28 513 l 307 513 z "},"ﬂ":{"ha":344,"x_min":24,"x_max":324,"o":"m 58 0 l 58 625 l 24 625 l 24 688 l 58 688 l 58 857 q 68 912 58 886 q 98 954 78 938 q 148 977 118 971 q 218 974 178 983 l 218 915 q 160 906 189 921 q 132 851 132 892 l 132 688 l 218 688 l 218 625 l 132 625 l 132 0 l 58 0 m 250 0 l 324 0 l 324 971 l 250 971 l 250 0 z "},"J":{"ha":306,"x_min":25,"x_max":281,"o":"m 142 -8 q 100 -1 121 -8 q 63 22 79 7 q 35 63 46 38 q 25 122 25 88 l 25 390 l 104 390 l 104 135 q 117 76 104 93 q 149 58 131 58 l 157 58 q 188 76 175 58 q 201 135 201 93 l 201 971 l 281 971 l 281 122 q 270 63 281 88 q 243 22 260 38 q 206 -1 226 7 q 164 -8 185 -8 l 142 -8 z "},"H":{"ha":306,"x_min":28,"x_max":278,"o":"m 278 971 l 278 0 l 199 0 l 199 456 l 107 456 l 107 0 l 28 0 l 28 971 l 107 971 l 107 514 l 199 514 l 199 971 l 278 971 z "},"I":{"ha":135,"x_min":28,"x_max":107,"o":"m 107 971 l 107 0 l 28 0 l 28 971 l 107 971 z "}}}
